<?xml version="1.0" encoding="UTF-8"?>
<!DOCTYPE svg PUBLIC "-//W3C//DTD SVG 1.1//EN"
    "http://www.w3.org/Graphics/SVG/1.1/DTD/svg11.dtd">
<svg xmlns="http://www.w3.org/2000/svg" height="400.0000" stroke-opacity="1" viewBox="0 0 800 400" font-size="1" width="800.0000" xmlns:xlink="http://www.w3.org/1999/xlink" stroke="rgb(0,0,0)" version="1.1">
  <defs>
  </defs>
  <g stroke-linejoin="miter" stroke-opacity="0.6" fill-opacity="0.0" stroke="rgb(44,160,44)" stroke-width="0.5375866070619203" fill="rgb(0,0,0)" stroke-linecap="butt" stroke-miterlimit="10.0">
    <path d="M 81.3871,323.7966 l 0.8566,-0.2425 l 0.8566,0.9477 l 0.8566,-1.1240 l 0.8566,0.9440 l 0.8566,2.7078 l 0.8566,-0.9628 l 0.8566,-0.9034 l 0.8566,0.8482 l 0.8566,0.2989 l 0.8566,1.3417 l 0.8566,0.1265 l 0.8566,-0.3610 l 0.8566,-1.2017 l 0.8566,-2.3487 l 0.8566,-0.1020 l 0.8566,0.2439 l 0.8566,1.0040 l 0.8566,-0.9217 l 0.8566,-0.1883 l 0.8566,-2.0872 l 0.8566,-0.0417 l 0.8566,0.5789 l 0.8566,-0.9896 l 0.8566,-1.3087 l 0.8566,-0.6676 l 0.8566,3.8057 l 0.8566,0.8129 l 0.8566,1.3072 l 0.8566,-1.1242 l 0.8566,-0.2780 l 0.8566,-1.0181 l 0.8566,-0.9788 l 0.8566,1.6350 l 0.8566,-2.1403 l 0.8566,-0.6621 l 0.8566,0.5968 l 0.8566,-0.4800 l 0.8566,-1.2479 l 0.8566,-1.6536 l 0.8566,0.2109 l 0.8566,0.8521 l 0.8566,-1.1334 l 0.8566,-1.0973 l 0.8566,-0.8647 l 0.8566,0.9702 l 0.8566,0.5538 l 0.8566,0.8065 l 0.8566,-1.2775 l 0.8566,-0.0647 l 0.8566,0.7974 l 0.8566,-0.6165 l 0.8566,-2.0870 l 0.8566,-0.8792 l 0.8566,1.3669 l 0.8566,-1.5074 l 0.8566,-1.0656 l 0.8566,1.2865 l 0.8566,-1.1637 l 0.8566,1.4906 l 0.8566,-0.7005 l 0.8566,-0.5174 l 0.8566,0.3447 l 0.8566,1.8175 l 0.8566,-0.5906 l 0.8566,-0.5354 l 0.8566,-0.5420 l 0.8566,-0.3272 l 0.8566,-0.2361 l 0.8566,-0.0648 l 0.8566,-0.0060 l 0.8566,-0.1048 l 0.8566,0.4549 l 0.8566,0.4986 l 0.8566,0.7505 l 0.8566,-1.1282 l 0.8566,-0.3211 l 0.8566,-0.3608 l 0.8566,1.0483 l 0.8566,0.6135 l 0.8566,0.0929 l 0.8566,-0.9793 l 0.8566,0.5290 l 0.8566,-0.7104 l 0.8566,0.4421 l 0.8566,0.3152 l 0.8566,0.9393 l 0.8566,0.1170 l 0.8566,0.8285 l 0.8566,0.4210 l 0.8566,-0.0232 l 0.8566,0.4418 l 0.8566,0.3676 l 0.8566,0.0317 l 0.8566,-0.8444 l 0.8566,-1.2981 l 0.8566,-0.1800 l 0.8566,0.1856 l 0.8566,-0.6125 l 0.8566,-0.8550 l 0.8566,-0.4156 l 0.8566,-0.0192 l 0.8566,0.8977 l 0.8566,-0.4337 l 0.8566,1.6113 l 0.8566,0.2537 l 0.8566,0.3793 l 0.8566,-0.2636 l 0.8566,0.5853 l 0.8566,-0.1447 l 0.8566,-0.6371 l 0.8566,0.6914 l 0.8566,0.1992 l 0.8566,0.0773 l 0.8566,-0.0749 l 0.8566,0.5059 l 0.8566,0.2180 l 0.8566,0.3333 l 0.8566,-0.1054 l 0.8566,-0.1682 l 0.8566,-0.4105 l 0.8566,-0.2508 l 0.8566,0.3112 l 0.8566,-0.6683 l 0.8566,-0.3931 l 0.8566,0.6580 l 0.8566,-1.0988 l 0.8566,1.0748 l 0.8566,-0.0262 l 0.8566,0.6511 l 0.8566,-0.3543 l 0.8566,0.0159 l 0.8566,0.7059 l 0.8566,0.1597 l 0.8566,0.7914 l 0.8566,-0.4833 l 0.8566,0.0728 l 0.8566,-0.1500 l 0.8566,-0.2116 l 0.8566,0.7258 l 0.8566,-0.6613 l 0.8566,0.5158 l 0.8566,0.4924 l 0.8566,-0.4285 l 0.8566,0.6889 l 0.8566,-0.2178 l 0.8566,-0.1296 l 0.8566,-0.9326 l 0.8566,0.2962 l 0.8566,-0.2600 l 0.8566,0.3447 l 0.8566,-0.5944 l 0.8566,0.3151 l 0.8566,-0.8236 l 0.8566,0.0467 l 0.8566,-0.9952 l 0.8566,-0.6952 l 0.8566,-0.8423 l 0.8566,-0.8845 l 0.8566,0.5914 l 0.8566,-0.3280 l 0.8566,0.7192 l 0.8566,-0.3418 l 0.8566,-0.6126 l 0.8566,0.6669 l 0.8566,0.1683 l 0.8566,0.0275 l 0.8566,0.2039 l 0.8566,1.5434 l 0.8566,-0.7402 l 0.8566,0.5577 l 0.8566,1.8357 l 0.8566,0.2648 l 0.8566,-0.5026 l 0.8566,-0.1566 l 0.8566,0.2628 l 0.8566,-0.6755 l 0.8566,-1.3833 l 0.8566,0.7135 l 0.8566,-0.3499 l 0.8566,0.7360 l 0.8566,-0.6867 l 0.8566,-0.2195 l 0.8566,1.0240 l 0.8566,0.1203 l 0.8566,0.5259 l 0.8566,-0.2515 l 0.8566,0.5611 l 0.8566,0.4252 l 0.8566,-0.5113 l 0.8566,-0.0580 l 0.8566,0.3942 l 0.8566,0.0763 l 0.8566,-0.2306 l 0.8566,0.4514 l 0.8566,-0.4754 l 0.8566,1.0688 l 0.8566,-0.3380 l 0.8566,0.4093 l 0.8566,0.2846 l 0.8566,1.0372 l 0.8566,-0.5270 l 0.8566,-0.0875 l 0.8566,0.8192 l 0.8566,0.0390 l 0.8566,0.2669 l 0.8566,-0.1162 l 0.8566,-0.2083 l 0.8566,0.5351 l 0.8566,-0.3650 l 0.8566,-0.2492 l 0.8566,-0.2036 l 0.8566,0.3218 l 0.8566,-1.3992 l 0.8566,-1.2835 l 0.8566,1.1659 l 0.8566,0.1302 l 0.8566,-0.2351 l 0.8566,0.3224 l 0.8566,-0.0802 l 0.8566,0.5267 l 0.8566,-0.2269 l 0.8566,-1.0532 l 0.8566,-0.0690 l 0.8566,0.0824 l 0.8566,1.0753 l 0.8566,-0.2236 l 0.8566,-0.0966 l 0.8566,-0.2923 l 0.8566,-0.0309 l 0.8566,-1.1380 l 0.8566,-0.3471 l 0.8566,0.4021 l 0.8566,0.0545 l 0.8566,-0.4617 l 0.8566,0.3089 l 0.8566,0.8584 l 0.8566,-0.3482 l 0.8566,-0.1468 l 0.8566,0.2793 l 0.8566,-0.3414 l 0.8566,0.4684 l 0.8566,0.2891 l 0.8566,0.6646 l 0.8566,-0.2854 l 0.8566,-0.7901 l 0.8566,-0.6560 l 0.8566,0.2249 l 0.8566,0.2459 l 0.8566,0.1820 l 0.8566,0.2423 l 0.8566,0.2814 l 0.8566,0.4481 l 0.8566,0.3987 l 0.8566,0.3973 l 0.8566,0.0985 l 0.8566,0.1665 l 0.8566,0.5004 l 0.8566,0.3622 l 0.8566,0.0762 l 0.8566,-0.7107 l 0.8566,0.1056 l 0.8566,-0.3252 l 0.8566,-0.3291 l 0.8566,-0.6384 l 0.8566,-0.7563 l 0.8566,-0.1297 l 0.8566,-0.1327 l 0.8566,-0.1707 l 0.8566,0.8642 l 0.8566,-0.3817 l 0.8566,0.8812 l 0.8566,0.6443 l 0.8566,1.0400 l 0.8566,-0.0498 l 0.8566,-0.9794 l 0.8566,0.4561 l 0.8566,-0.3995 l 0.8566,-0.1674 l 0.8566,-0.3211 l 0.8566,0.3381 l 0.8566,-0.9261 l 0.8566,-0.6579 l 0.8566,-0.6287 l 0.8566,0.1036 l 0.8566,-0.0023 l 0.8566,-0.0580 l 0.8566,-0.4656 l 0.8566,-0.8982 l 0.8566,0.2634 l 0.8566,-1.0077 l 0.8566,0.0460 l 0.8566,0.5892 l 0.8566,-0.5899 l 0.8566,0.3085 l 0.8566,0.1087 l 0.8566,0.3121 l 0.8566,0.4042 l 0.8566,0.1279 l 0.8566,0.5707 l 0.8566,0.3705 l 0.8566,-0.0105 l 0.8566,0.1739 l 0.8566,-0.3214 l 0.8566,0.0813 l 0.8566,0.6473 l 0.8566,0.2940 l 0.8566,-0.7051 l 0.8566,-0.5152 l 0.8566,1.2173 l 0.8566,-0.0834 l 0.8566,1.1598 l 0.8566,-0.6142 l 0.8566,0.4171 l 0.8566,0.2796 l 0.8566,-0.5972 l 0.8566,-0.7429 l 0.8566,-0.1213 l 0.8566,0.4785 l 0.8566,0.4548 l 0.8566,0.0923 l 0.8566,-0.5914 l 0.8566,0.7651 l 0.8566,0.2689 l 0.8566,0.1730 l 0.8566,0.4411 l 0.8566,-0.7163 l 0.8566,-0.8440 l 0.8566,-0.1116 l 0.8566,0.0772 l 0.8566,-0.6698 l 0.8566,-1.1674 l 0.8566,-0.0669 l 0.8566,0.2511 l 0.8566,-0.3017 l 0.8566,-0.2060 l 0.8566,0.5082 l 0.8566,0.5579 l 0.8566,0.4815 l 0.8566,0.2625 l 0.8566,-0.2952 l 0.8566,-0.5859 l 0.8566,1.1701 l 0.8566,0.0946 l 0.8566,1.1837 l 0.8566,-0.2389 l 0.8566,0.8090 l 0.8566,-0.1734 l 0.8566,0.0594 l 0.8566,-0.8240 l 0.8566,-0.0424 l 0.8566,0.2141 l 0.8566,0.3317 l 0.8566,0.3640 l 0.8566,-0.0701 l 0.8566,-0.3796 l 0.8566,0.4987 l 0.8566,-0.7103 l 0.8566,0.0021 l 0.8566,0.0308 l 0.8566,0.1968 l 0.8566,-0.3470 l 0.8566,-0.3541 l 0.8566,-0.3696 l 0.8566,0.0417 l 0.8566,-0.3212 l 0.8566,-0.8135 l 0.8566,-0.5754 l 0.8566,-0.3682 l 0.8566,-0.7436 l 0.8566,-0.8030 l 0.8566,0.0392 l 0.8566,-0.0443 l 0.8566,0.0976 l 0.8566,0.0241 l 0.8566,-0.0738 l 0.8566,0.1387 l 0.8566,-0.5817 l 0.8566,-0.1142 l 0.8566,-0.4693 l 0.8566,0.5663 l 0.8566,-0.1814 l 0.8566,-0.0570 l 0.8566,-0.2614 l 0.8566,0.3605 l 0.8566,-0.1783 l 0.8566,0.6679 l 0.8566,0.4404 l 0.8566,-0.1594 l 0.8566,0.4166 l 0.8566,0.1610 l 0.8566,-0.7018 l 0.8566,1.1367 l 0.8566,-0.0195 l 0.8566,-0.6177 l 0.8566,0.3659 l 0.8566,-0.2837 l 0.8566,-0.6474 l 0.8566,0.9396 l 0.8566,-0.0590 l 0.8566,-0.5769 l 0.8566,-0.5212 l 0.8566,-0.0540 l 0.8566,-0.2760 l 0.8566,-0.8957 l 0.8566,0.5768 l 0.8566,-0.4912 l 0.8566,-0.7009 l 0.8566,-0.2924 l 0.8566,-0.3169 l 0.8566,-0.4508 l 0.8566,0.3200 l 0.8566,0.6065 l 0.8566,-0.5159 l 0.8566,1.0073 l 0.8566,0.3274 l 0.8566,-0.4898 l 0.8566,0.0305 l 0.8566,0.3273 l 0.8566,0.0218 l 0.8566,0.1457 l 0.8566,0.4206 l 0.8566,-0.2683 l 0.8566,-0.0533 l 0.8566,-0.0996 l 0.8566,-0.3511 l 0.8566,0.5436 l 0.8566,-0.1392 l 0.8566,0.2982 l 0.8566,-0.7794 l 0.8566,-0.6632 l 0.8566,-0.2707 l 0.8566,-0.9969 l 0.8566,-0.1777 l 0.8566,0.2906 l 0.8566,0.6851 l 0.8566,-0.1846 l 0.8566,0.1614 l 0.8566,-0.5174 l 0.8566,-0.6485 l 0.8566,0.1752 l 0.8566,-0.0585 l 0.8566,0.6671 l 0.8566,-0.5495 l 0.8566,0.0970 l 0.8566,-1.3292 l 0.8566,0.0665 l 0.8566,0.5448 l 0.8566,-0.6121 l 0.8566,0.5677 l 0.8566,-0.6347 l 0.8566,1.0441 l 0.8566,-0.2000 l 0.8566,0.0237 l 0.8566,-0.3045 l 0.8566,0.0385 l 0.8566,0.0117 l 0.8566,-0.0799 l 0.8566,0.1302 l 0.8566,-0.3533 l 0.8566,0.1469 l 0.8566,-0.1086 l 0.8566,0.3490 l 0.8566,-0.0672 l 0.8566,0.1563 l 0.8566,-0.1093 l 0.8566,-0.2567 l 0.8566,-0.3082 l 0.8566,-0.0065 l 0.8566,0.0846 l 0.8566,0.2952 l 0.8566,0.6290 l 0.8566,0.6429 l 0.8566,-0.1299 l 0.8566,-0.0711 l 0.8566,0.6892 l 0.8566,0.4192 l 0.8566,0.1357 l 0.8566,0.1245 l 0.8566,-0.1266 l 0.8566,-0.4079 l 0.8566,0.4278 l 0.8566,0.3663 l 0.8566,-0.2644 l 0.8566,0.3447 l 0.8566,-0.0718 l 0.8566,-0.2013 l 0.8566,0.1679 l 0.8566,0.0615 l 0.8566,-0.1719 l 0.8566,-0.2517 l 0.8566,0.6873 l 0.8566,-0.6840 l 0.8566,0.3751 l 0.8566,0.0842 l 0.8566,0.6439 l 0.8566,-0.0847 l 0.8566,0.1743 l 0.8566,0.2768 l 0.8566,-0.6668 l 0.8566,0.2647 l 0.8566,-0.3807 l 0.8566,-0.9359 l 0.8566,0.3729 l 0.8566,-0.3229 l 0.8566,0.1422 l 0.8566,-0.0681 l 0.8566,-0.8140 l 0.8566,-0.4921 l 0.8566,0.3023 l 0.8566,1.0004 l 0.8566,-0.1962 l 0.8566,0.3856 l 0.8566,-0.3710 l 0.8566,-0.4192 l 0.8566,0.4405 l 0.8566,0.1070 l 0.8566,0.6386 l 0.8566,1.0652 l 0.8566,0.0194 l 0.8566,0.5312 l 0.8566,0.5526 l 0.8566,-0.4059 l 0.8566,-0.0538 l 0.8566,-0.0761 l 0.8566,0.2884 l 0.8566,-0.2202 l 0.8566,-0.2077 l 0.8566,0.0640 l 0.8566,-0.1241 l 0.8566,0.4732 l 0.8566,-0.2816 l 0.8566,0.0959 l 0.8566,0.2648 l 0.8566,0.5376 l 0.8566,-0.1468 l 0.8566,0.0588 l 0.8566,0.0196 l 0.8566,0.1139 l 0.8566,-0.1056 l 0.8566,-0.2121 l 0.8566,-0.3472 l 0.8566,-0.1299 l 0.8566,-0.3204 l 0.8566,0.4145 l 0.8566,0.4554 l 0.8566,-0.0452 l 0.8566,0.0513 l 0.8566,-0.1864 l 0.8566,-0.2461 l 0.8566,-0.1711 l 0.8566,0.4505 l 0.8566,0.3422 l 0.8566,0.3909 l 0.8566,-0.0519 l 0.8566,0.0752 l 0.8566,0.6762 l 0.8566,-0.1779 l 0.8566,0.0133 l 0.8566,-0.4389 l 0.8566,0.7512 l 0.8566,-0.3971 l 0.8566,0.3168 l 0.8566,-0.0918 l 0.8566,0.5072 l 0.8566,0.2747 l 0.8566,0.8654 l 0.8566,-0.6490 l 0.8566,-0.1876 l 0.8566,-0.3775 l 0.8566,-0.4130 l 0.8566,0.3968 l 0.8566,1.1157 l 0.8566,0.2635 l 0.8566,0.1457 l 0.8566,0.1416 l 0.8566,-0.0632 l 0.8566,-0.6728 l 0.8566,0.2937 l 0.8566,0.0362 l 0.8566,0.0186 l 0.8566,0.3187 l 0.8566,-0.2045 l 0.8566,-0.4406 l 0.8566,0.3235 l 0.8566,-0.5893 l 0.8566,-0.6429 l 0.8566,0.3633 l 0.8566,-1.0310 l 0.8566,-0.6890 l 0.8566,-0.7760 l 0.8566,-0.5748 l 0.8566,-0.3276 l 0.8566,-0.1942 l 0.8566,0.4702 l 0.8566,0.1305 l 0.8566,0.6583 l 0.8566,-0.0984 l 0.8566,0.3634 l 0.8566,0.5386 l 0.8566,0.0545 l 0.8566,-0.0772 l 0.8566,0.0607 l 0.8566,0.1127 l 0.8566,0.0060 l 0.8566,-0.4337 l 0.8566,-0.0851 l 0.8566,-0.6557 l 0.8566,-0.1341 l 0.8566,0.0236 l 0.8566,0.3237 l 0.8566,0.8022 l 0.8566,-0.4275 l 0.8566,-0.4281 l 0.8566,-0.2960 l 0.8566,-1.0863 l 0.8566,0.4687 l 0.8566,0.5921 l 0.8566,-0.4976 l 0.8566,-0.5394 l 0.8566,0.2952 l 0.8566,0.1290 l 0.8566,0.2911 l 0.8566,-0.5637 l 0.8566,0.0217 l 0.8566,0.4364 l 0.8566,-0.0324 l 0.8566,-0.3140 l 0.8566,0.1194 l 0.8566,0.2947 l 0.8566,0.0969 l 0.8566,0.0003 l 0.8566,0.2381 l 0.8566,-0.0865 l 0.8566,-0.3146 l 0.8566,-0.5130 l 0.8566,-0.6603 l 0.8566,-0.0125 l 0.8566,0.0183 l 0.8566,0.2128 l 0.8566,-0.6358 l 0.8566,0.0161 l 0.8566,-0.4016 l 0.8566,0.3245 l 0.8566,0.0406 l 0.8566,-0.3731 l 0.8566,-0.2230 l 0.8566,-0.4444 l 0.8566,-0.4992 l 0.8566,-0.0274 l 0.8566,0.3558 l 0.8566,-0.1628 l 0.8566,0.0157 l 0.8566,0.3048 l 0.8566,-0.2592 l 0.8566,-0.0615 l 0.8566,0.0660 l 0.8566,0.1098 l 0.8566,0.1828 l 0.8566,-0.3525 l 0.8566,-0.2751 l 0.8566,-0.1925 l 0.8566,0.5517 l 0.8566,0.3844 l 0.8566,0.1779 l 0.8566,-0.0959 l 0.8566,-0.0396 l 0.8566,-0.2537 l 0.8566,0.2963 l 0.8566,-0.0111 l 0.8566,0.2475 l 0.8566,-0.1707 l 0.8566,0.0743 l 0.8566,-0.0365 l 0.8566,0.0438 l 0.8566,-0.0290 l 0.8566,-0.2296 l 0.8566,-0.0716 l 0.8566,-0.0248 l 0.8566,0.1806 l 0.8566,-0.1805 l 0.8566,-0.1855 l 0.8566,0.2825 l 0.8566,-0.4239 l 0.8566,0.3821 l 0.8566,0.1457 l 0.8566,-0.3837 l 0.8566,0.1727 l 0.8566,-0.0164 l 0.8566,-0.1886 l 0.8566,-0.2260 l 0.8566,-0.1035 l 0.8566,-0.6730 l 0.8566,0.2314 l 0.8566,0.2271 l 0.8566,-0.6950 l 0.8566,0.1792 l 0.8566,-0.2405 l 0.8566,0.1075 l 0.8566,-0.0385 l 0.8566,0.3644 l 0.8566,-0.0959 l 0.8566,-0.3119 l 0.8566,-0.1521 l 0.8566,-0.0276 l 0.8566,0.1648 l 0.8566,-0.2632 l 0.8566,-0.4003 l 0.8566,0.4835 l 0.8566,0.4682 l 0.8566,-0.1849 l 0.8566,-0.3963 l 0.8566,-0.0588 l 0.8566,0.0009 l 0.8566,-0.0494 l 0.8566,0.4073 l 0.8566,-0.0939 l 0.8566,-0.1246 l 0.8566,-0.5943 l 0.8566,-0.5825 l 0.8566,-0.4452 l 0.8566,0.2686 l 0.8566,0.0625 l 0.8566,0.5568 l 0.8566,0.5062 l 0.8566,0.2140 l 0.8566,0.7531 l 0.8566,-0.5876 l 0.8566,-0.0018 l 0.8566,0.5499 l 0.8566,-0.9909 l 0.8566,-0.0281 l 0.8566,0.8925 l 0.8566,0.6303 l 0.8566,0.6242 l 0.8566,0.2266 l 0.8566,0.2300 l 0.8566,-0.2883 l 0.8566,-0.0127 l 0.8566,-0.8841 l 0.8566,-0.0631 l 0.8566,-0.4446 l 0.8566,-0.3843 l 0.8566,-0.5907 l 0.8566,-0.4001 l 0.8566,0.1696 l 0.8566,-0.0496 l 0.8566,-0.6849 l 0.8566,0.5296 l 0.8566,0.1650 l 0.8566,0.0950 l 0.8566,-0.1387 l 0.8566,0.0668 l 0.8566,-0.1264 l 0.8566,0.0574 l 0.8566,-0.1671 l 0.8566,-0.0854 l 0.8566,-0.2515 l 0.8566,0.3014 l 0.8566,-0.5061 l 0.8566,-0.0639 l 0.8566,-0.0789 l 0.8566,0.4382 l 0.8566,-0.0857 l 0.8566,-0.3773 l 0.8566,-0.3037 l 0.8566,0.2564 l 0.8566,-0.4261 l 0.8566,-0.0576 l 0.8566,0.0970 l 0.8566,0.0447 l 0.8566,-0.1122 l 0.8566,-0.3300 l 0.8566,-0.2306 l 0.8566,-0.5208 l 0.8566,0.3327 l 0.8566,0.3675 l 0.8566,-0.3099 l 0.8566,-0.0161 l 0.8566,0.1197 l 0.8566,0.2406 l 0.8566,-0.5479 l 0.8566,-0.1918 l 0.8566,-0.2717 l 0.8566,0.2803 l 0.8566,-0.1671 l 0.8566,0.3668 l 0.8566,0.1828 l 0.8566,-0.5104 l 0.8566,0.4372 l 0.8566,-0.0296 l 0.8566,-0.0026 l 0.8566,-0.0740 l 0.8566,0.2430 l 0.8566,-0.0092 l 0.8566,-0.4080 l 0.8566,-0.2607 l 0.8566,0.0614 l 0.8566,-0.0567 l 0.8566,0.3904 "/>
  </g>
  <g stroke-linejoin="miter" stroke-opacity="0.6" fill-opacity="0.0" stroke="rgb(255,127,14)" stroke-width="0.5375866070619203" fill="rgb(0,0,0)" stroke-linecap="butt" stroke-miterlimit="10.0">
    <path d="M 81.3871,118.2075 l 0.8566,0.5120 l 0.8566,0.1171 l 0.8566,-0.0584 l 0.8566,0.1116 l 0.8566,-2.9095 l 0.8566,0.1000 l 0.8566,0.1473 l 0.8566,0.1883 l 0.8566,0.4829 l 0.8566,-0.3374 l 0.8566,0.5129 l 0.8566,0.4541 l 0.8566,-0.1870 l 0.8566,-2.1599 l 0.8566,0.5104 l 0.8566,0.4830 l 0.8566,0.0145 l 0.8566,0.0882 l 0.8566,0.4867 l 0.8566,-1.6585 l 0.8566,0.5023 l 0.8566,0.3325 l 0.8566,0.0057 l 0.8566,-0.3670 l 0.8566,0.2689 l 0.8566,-6.7367 l 0.8566,0.1802 l 0.8566,-0.3419 l 0.8566,-0.1246 l 0.8566,0.4623 l 0.8566,-0.0215 l 0.8566,0.0141 l 0.8566,-0.8527 l 0.8566,-1.8075 l 0.8566,0.2764 l 0.8566,0.3142 l 0.8566,0.3745 l 0.8566,-0.3051 l 0.8566,-0.9075 l 0.8566,0.4653 l 0.8566,0.1119 l 0.8566,-0.1796 l 0.8566,-0.1412 l 0.8566,0.0922 l 0.8566,-0.0121 l 0.8566,0.3162 l 0.8566,0.1323 l 0.8566,-0.3884 l 0.8566,0.4694 l 0.8566,0.1306 l 0.8566,0.2638 l 0.8566,-1.8624 l 0.8566,0.0547 l 0.8566,-0.5342 l 0.8566,-0.7511 l 0.8566,-0.1434 l 0.8566,-0.4250 l 0.8566,-0.2653 l 0.8566,-0.7344 l 0.8566,0.1975 l 0.8566,0.3153 l 0.8566,0.3934 l 0.8566,-1.3462 l 0.8566,0.2668 l 0.8566,0.2980 l 0.8566,0.2912 l 0.8566,0.3917 l 0.8566,0.4176 l 0.8566,0.4440 l 0.8566,0.4439 l 0.8566,0.4354 l 0.8566,0.3216 l 0.8566,0.2952 l 0.8566,0.1122 l 0.8566,-0.2982 l 0.8566,0.3734 l 0.8566,0.3552 l 0.8566,-0.2106 l 0.8566,0.2081 l 0.8566,0.4209 l 0.8566,-0.1405 l 0.8566,0.2576 l 0.8566,0.1218 l 0.8566,0.3032 l 0.8566,0.3582 l 0.8566,-0.1139 l 0.8566,0.4064 l 0.8566,-0.0025 l 0.8566,0.3038 l 0.8566,0.4092 l 0.8566,0.2879 l 0.8566,0.3226 l 0.8566,0.4033 l 0.8566,-0.0405 l 0.8566,-0.6463 l 0.8566,0.3808 l 0.8566,0.3775 l 0.8566,0.1614 l 0.8566,-0.0651 l 0.8566,0.2855 l 0.8566,0.3928 l 0.8566,-0.1227 l 0.8566,0.2700 l 0.8566,-1.2727 l 0.8566,0.3489 l 0.8566,0.2958 l 0.8566,0.3418 l 0.8566,0.1628 l 0.8566,0.3700 l 0.8566,0.1165 l 0.8566,0.0671 l 0.8566,0.3533 l 0.8566,0.3738 l 0.8566,0.3723 l 0.8566,0.2036 l 0.8566,0.3411 l 0.8566,0.2966 l 0.8566,0.3623 l 0.8566,0.3489 l 0.8566,0.2518 l 0.8566,0.3221 l 0.8566,0.2971 l 0.8566,0.0542 l 0.8566,0.2541 l 0.8566,0.0591 l 0.8566,-0.4806 l 0.8566,-0.4447 l 0.8566,0.3579 l 0.8566,0.0603 l 0.8566,0.2677 l 0.8566,0.3543 l 0.8566,0.0006 l 0.8566,0.3340 l 0.8566,-0.0952 l 0.8566,0.1832 l 0.8566,0.3449 l 0.8566,0.3310 l 0.8566,0.3134 l 0.8566,-0.0374 l 0.8566,0.0259 l 0.8566,0.1488 l 0.8566,0.1644 l 0.8566,0.2058 l 0.8566,-0.0098 l 0.8566,0.3035 l 0.8566,0.3247 l 0.8566,-0.3102 l 0.8566,0.2702 l 0.8566,0.2837 l 0.8566,0.2439 l 0.8566,0.0660 l 0.8566,0.2559 l 0.8566,-0.1836 l 0.8566,0.3275 l 0.8566,-0.4253 l 0.8566,-0.0401 l 0.8566,-0.2138 l 0.8566,-0.2705 l 0.8566,0.0590 l 0.8566,0.2430 l 0.8566,-0.0734 l 0.8566,0.2337 l 0.8566,0.0324 l 0.8566,-0.0229 l 0.8566,0.2992 l 0.8566,0.3194 l 0.8566,0.2862 l 0.8566,-1.5472 l 0.8566,-0.1088 l 0.8566,0.0753 l 0.8566,-2.3115 l 0.8566,0.2664 l 0.8566,0.1227 l 0.8566,0.2998 l 0.8566,0.2635 l 0.8566,-0.0430 l 0.8566,-1.1906 l 0.8566,-0.0832 l 0.8566,0.2201 l 0.8566,-0.1125 l 0.8566,-0.0583 l 0.8566,0.2763 l 0.8566,-0.5204 l 0.8566,0.3021 l 0.8566,0.0915 l 0.8566,0.2610 l 0.8566,0.0576 l 0.8566,0.1642 l 0.8566,0.0977 l 0.8566,0.3054 l 0.8566,0.1807 l 0.8566,0.3014 l 0.8566,0.2615 l 0.8566,0.1367 l 0.8566,0.1171 l 0.8566,-0.6391 l 0.8566,0.2085 l 0.8566,0.1632 l 0.8566,0.2337 l 0.8566,-0.5938 l 0.8566,0.0693 l 0.8566,0.2932 l 0.8566,-0.2623 l 0.8566,0.2970 l 0.8566,0.2374 l 0.8566,0.2849 l 0.8566,0.2586 l 0.8566,0.0515 l 0.8566,0.1803 l 0.8566,0.2399 l 0.8566,0.2564 l 0.8566,0.2021 l 0.8566,-1.3887 l 0.8566,-1.1150 l 0.8566,-0.8644 l 0.8566,0.2789 l 0.8566,0.2451 l 0.8566,0.2024 l 0.8566,0.2851 l 0.8566,0.0504 l 0.8566,0.2445 l 0.8566,-0.6715 l 0.8566,0.2844 l 0.8566,0.2817 l 0.8566,-0.7187 l 0.8566,0.2436 l 0.8566,0.2781 l 0.8566,0.2105 l 0.8566,0.2836 l 0.8566,-0.8544 l 0.8566,0.1783 l 0.8566,0.1410 l 0.8566,0.2801 l 0.8566,0.0929 l 0.8566,0.1964 l 0.8566,-0.3751 l 0.8566,0.1723 l 0.8566,0.2604 l 0.8566,0.2088 l 0.8566,0.1732 l 0.8566,0.0796 l 0.8566,0.2011 l 0.8566,-0.1238 l 0.8566,0.2016 l 0.8566,-0.2921 l 0.8566,-0.1164 l 0.8566,0.2283 l 0.8566,0.2183 l 0.8566,0.2424 l 0.8566,0.2180 l 0.8566,0.1982 l 0.8566,0.0850 l 0.8566,0.1227 l 0.8566,0.1228 l 0.8566,0.2595 l 0.8566,0.2419 l 0.8566,0.0327 l 0.8566,0.1435 l 0.8566,0.2603 l 0.8566,-0.2107 l 0.8566,0.2543 l 0.8566,0.1639 l 0.8566,0.1606 l 0.8566,-0.1245 l 0.8566,-0.2814 l 0.8566,0.2463 l 0.8566,0.2447 l 0.8566,0.2329 l 0.8566,-0.4561 l 0.8566,0.1205 l 0.8566,-0.4861 l 0.8566,-0.1388 l 0.8566,-0.7785 l 0.8566,0.2578 l 0.8566,-0.6620 l 0.8566,0.0601 l 0.8566,0.1057 l 0.8566,0.2318 l 0.8566,0.1584 l 0.8566,0.1466 l 0.8566,-0.5755 l 0.8566,-0.1628 l 0.8566,-0.1268 l 0.8566,0.2463 l 0.8566,0.2560 l 0.8566,0.2520 l 0.8566,0.0419 l 0.8566,-0.5376 l 0.8566,0.1863 l 0.8566,-0.7436 l 0.8566,0.2522 l 0.8566,-0.0882 l 0.8566,-0.0897 l 0.8566,0.1591 l 0.8566,0.2407 l 0.8566,0.1551 l 0.8566,0.0887 l 0.8566,0.2343 l 0.8566,-0.0753 l 0.8566,0.1123 l 0.8566,0.2490 l 0.8566,0.2180 l 0.8566,0.1436 l 0.8566,0.2405 l 0.8566,-0.1776 l 0.8566,0.1587 l 0.8566,-0.2588 l 0.8566,-0.0238 l 0.8566,-1.2572 l 0.8566,0.2396 l 0.8566,-1.1156 l 0.8566,-0.1342 l 0.8566,0.0707 l 0.8566,0.1671 l 0.8566,-0.1164 l 0.8566,-0.3153 l 0.8566,0.2306 l 0.8566,0.0115 l 0.8566,0.0333 l 0.8566,0.2354 l 0.8566,-0.1150 l 0.8566,-0.3569 l 0.8566,0.1692 l 0.8566,0.2120 l 0.8566,0.0416 l 0.8566,-0.2876 l 0.8566,-0.4929 l 0.8566,0.2292 l 0.8566,0.2353 l 0.8566,-0.2241 l 0.8566,-1.1685 l 0.8566,0.2372 l 0.8566,0.1759 l 0.8566,0.1462 l 0.8566,0.1960 l 0.8566,-0.0296 l 0.8566,-0.0856 l 0.8566,-0.0032 l 0.8566,0.1666 l 0.8566,0.1467 l 0.8566,-0.1229 l 0.8566,-1.1981 l 0.8566,0.2292 l 0.8566,-1.2278 l 0.8566,0.1795 l 0.8566,-0.4458 l 0.8566,0.2073 l 0.8566,0.2345 l 0.8566,-0.4753 l 0.8566,0.2359 l 0.8566,0.1889 l 0.8566,0.1206 l 0.8566,0.0961 l 0.8566,0.2306 l 0.8566,0.0822 l 0.8566,-0.0298 l 0.8566,-0.3023 l 0.8566,0.2345 l 0.8566,0.2329 l 0.8566,0.1919 l 0.8566,0.1036 l 0.8566,0.0977 l 0.8566,0.0849 l 0.8566,0.2297 l 0.8566,0.1194 l 0.8566,-0.4853 l 0.8566,-0.1273 l 0.8566,0.0838 l 0.8566,-0.3689 l 0.8566,-0.4677 l 0.8566,0.2290 l 0.8566,0.2279 l 0.8566,0.2191 l 0.8566,0.2283 l 0.8566,0.2225 l 0.8566,0.2068 l 0.8566,-0.1442 l 0.8566,0.2129 l 0.8566,-0.0159 l 0.8566,-0.1272 l 0.8566,0.1899 l 0.8566,0.2222 l 0.8566,0.1495 l 0.8566,0.0803 l 0.8566,0.1890 l 0.8566,-0.2732 l 0.8566,0.0076 l 0.8566,0.1953 l 0.8566,0.0289 l 0.8566,0.1938 l 0.8566,-0.3303 l 0.8566,-1.2236 l 0.8566,0.2231 l 0.8566,-0.2040 l 0.8566,0.0730 l 0.8566,0.1323 l 0.8566,-0.2486 l 0.8566,-0.7682 l 0.8566,0.2189 l 0.8566,-0.1515 l 0.8566,-0.0831 l 0.8566,0.2187 l 0.8566,0.1355 l 0.8566,-0.6837 l 0.8566,-0.1533 l 0.8566,-0.0506 l 0.8566,-0.3328 l 0.8566,0.1249 l 0.8566,0.1074 l 0.8566,-0.0095 l 0.8566,0.1042 l 0.8566,-0.1975 l 0.8566,-0.0823 l 0.8566,-0.9308 l 0.8566,0.0990 l 0.8566,-0.0520 l 0.8566,0.2189 l 0.8566,0.0975 l 0.8566,0.2185 l 0.8566,0.1943 l 0.8566,0.0155 l 0.8566,0.1353 l 0.8566,0.2142 l 0.8566,0.2055 l 0.8566,0.0742 l 0.8566,-0.1251 l 0.8566,0.1936 l 0.8566,0.1125 l 0.8566,-0.4888 l 0.8566,-0.2939 l 0.8566,0.1306 l 0.8566,-0.9356 l 0.8566,0.1794 l 0.8566,0.1176 l 0.8566,-0.3293 l 0.8566,0.1757 l 0.8566,0.1845 l 0.8566,-0.0974 l 0.8566,-0.2756 l 0.8566,0.1785 l 0.8566,0.2099 l 0.8566,-0.3070 l 0.8566,-0.1396 l 0.8566,0.2024 l 0.8566,-1.8495 l 0.8566,0.2095 l 0.8566,-0.1317 l 0.8566,-0.2226 l 0.8566,-0.1616 l 0.8566,-0.2557 l 0.8566,-1.0544 l 0.8566,0.1685 l 0.8566,0.2139 l 0.8566,0.1059 l 0.8566,0.2120 l 0.8566,0.2131 l 0.8566,0.2053 l 0.8566,0.1924 l 0.8566,0.0649 l 0.8566,0.1862 l 0.8566,0.1973 l 0.8566,0.0665 l 0.8566,0.2052 l 0.8566,0.1810 l 0.8566,0.1955 l 0.8566,0.1306 l 0.8566,0.0954 l 0.8566,0.2086 l 0.8566,0.1996 l 0.8566,0.1030 l 0.8566,-0.2687 l 0.8566,-0.2896 l 0.8566,0.1873 l 0.8566,0.2011 l 0.8566,-0.3665 l 0.8566,-0.0052 l 0.8566,0.1844 l 0.8566,0.1875 l 0.8566,0.1864 l 0.8566,0.0032 l 0.8566,-0.0174 l 0.8566,0.0417 l 0.8566,0.1196 l 0.8566,0.0594 l 0.8566,0.1979 l 0.8566,0.1542 l 0.8566,0.1688 l 0.8566,0.1984 l 0.8566,0.1662 l 0.8566,0.1241 l 0.8566,-0.3815 l 0.8566,-0.3752 l 0.8566,0.0287 l 0.8566,0.1933 l 0.8566,-0.3112 l 0.8566,0.1929 l 0.8566,0.1638 l 0.8566,0.1059 l 0.8566,-0.3518 l 0.8566,0.1138 l 0.8566,0.0202 l 0.8566,-0.8889 l 0.8566,0.0284 l 0.8566,0.0712 l 0.8566,0.1754 l 0.8566,0.1944 l 0.8566,-0.6269 l 0.8566,-0.1017 l 0.8566,0.0861 l 0.8566,-1.0473 l 0.8566,0.1528 l 0.8566,0.0150 l 0.8566,0.0284 l 0.8566,-0.0196 l 0.8566,-0.0428 l 0.8566,0.1853 l 0.8566,-0.3115 l 0.8566,-1.2177 l 0.8566,0.1999 l 0.8566,-0.1523 l 0.8566,-0.1814 l 0.8566,-0.0059 l 0.8566,0.1961 l 0.8566,0.1921 l 0.8566,0.0946 l 0.8566,0.1378 l 0.8566,0.1441 l 0.8566,0.1929 l 0.8566,0.1782 l 0.8566,-0.0860 l 0.8566,0.0968 l 0.8566,0.1853 l 0.8566,0.1075 l 0.8566,-0.1712 l 0.8566,0.1689 l 0.8566,0.1916 l 0.8566,0.1951 l 0.8566,0.1786 l 0.8566,0.1806 l 0.8566,0.1368 l 0.8566,0.0393 l 0.8566,0.1723 l 0.8566,0.0613 l 0.8566,-0.0283 l 0.8566,-0.0746 l 0.8566,0.1906 l 0.8566,0.1894 l 0.8566,0.1474 l 0.8566,0.1134 l 0.8566,0.1538 l 0.8566,-0.0729 l 0.8566,0.0387 l 0.8566,-0.0083 l 0.8566,0.1876 l 0.8566,0.1834 l 0.8566,-0.4088 l 0.8566,0.1492 l 0.8566,0.1901 l 0.8566,-0.0632 l 0.8566,-0.5514 l 0.8566,-0.0168 l 0.8566,0.0582 l 0.8566,0.1788 l 0.8566,-0.1493 l 0.8566,0.0900 l 0.8566,-0.7972 l 0.8566,-0.3638 l 0.8566,0.1437 l 0.8566,0.0021 l 0.8566,-0.0352 l 0.8566,-0.0182 l 0.8566,-1.4476 l 0.8566,0.0994 l 0.8566,0.1623 l 0.8566,0.1635 l 0.8566,0.1843 l 0.8566,-0.4076 l 0.8566,0.0757 l 0.8566,0.1875 l 0.8566,0.1884 l 0.8566,0.0540 l 0.8566,0.1329 l 0.8566,-0.0698 l 0.8566,0.0489 l 0.8566,-0.2738 l 0.8566,-0.3611 l 0.8566,0.0128 l 0.8566,-1.2212 l 0.8566,-0.4384 l 0.8566,-0.6051 l 0.8566,-0.2458 l 0.8566,0.0481 l 0.8566,0.1396 l 0.8566,-0.1029 l 0.8566,0.1665 l 0.8566,-0.3845 l 0.8566,0.1761 l 0.8566,0.0136 l 0.8566,-0.1960 l 0.8566,0.1845 l 0.8566,0.1802 l 0.8566,0.1829 l 0.8566,0.1705 l 0.8566,0.1871 l 0.8566,-0.0646 l 0.8566,0.1771 l 0.8566,-0.3890 l 0.8566,0.1626 l 0.8566,0.1856 l 0.8566,0.0453 l 0.8566,-0.6777 l 0.8566,-0.0587 l 0.8566,-0.0596 l 0.8566,0.0685 l 0.8566,-1.3942 l 0.8566,-0.1063 l 0.8566,-0.2812 l 0.8566,-0.1435 l 0.8566,-0.2013 l 0.8566,0.0707 l 0.8566,0.1646 l 0.8566,0.0731 l 0.8566,-0.2393 l 0.8566,0.1858 l 0.8566,-0.0694 l 0.8566,0.1846 l 0.8566,0.0531 l 0.8566,0.1663 l 0.8566,0.0681 l 0.8566,0.1724 l 0.8566,0.1847 l 0.8566,0.1077 l 0.8566,0.1740 l 0.8566,0.0495 l 0.8566,-0.1739 l 0.8566,-0.4085 l 0.8566,0.1837 l 0.8566,0.1832 l 0.8566,0.1216 l 0.8566,-0.3679 l 0.8566,0.1829 l 0.8566,-0.0371 l 0.8566,0.0391 l 0.8566,0.1805 l 0.8566,-0.0082 l 0.8566,0.1141 l 0.8566,-0.0888 l 0.8566,-0.1598 l 0.8566,0.1810 l 0.8566,0.0077 l 0.8566,0.1451 l 0.8566,0.1810 l 0.8566,0.0528 l 0.8566,0.0880 l 0.8566,0.1754 l 0.8566,0.1743 l 0.8566,0.1633 l 0.8566,0.1333 l 0.8566,0.0066 l 0.8566,0.0740 l 0.8566,0.1275 l 0.8566,-0.2456 l 0.8566,-0.0271 l 0.8566,0.1347 l 0.8566,0.1658 l 0.8566,0.1762 l 0.8566,0.0878 l 0.8566,0.0547 l 0.8566,0.1776 l 0.8566,0.0912 l 0.8566,0.1362 l 0.8566,0.1692 l 0.8566,0.1749 l 0.8566,0.1738 l 0.8566,0.1750 l 0.8566,0.1011 l 0.8566,0.1684 l 0.8566,0.1746 l 0.8566,0.1286 l 0.8566,0.1284 l 0.8566,0.1255 l 0.8566,0.0602 l 0.8566,-0.0832 l 0.8566,-0.0350 l 0.8566,0.1437 l 0.8566,-0.0376 l 0.8566,0.1310 l 0.8566,0.1732 l 0.8566,0.1221 l 0.8566,0.0993 l 0.8566,0.1574 l 0.8566,-0.4820 l 0.8566,0.0956 l 0.8566,0.0981 l 0.8566,-0.5259 l 0.8566,0.1264 l 0.8566,0.0889 l 0.8566,0.1557 l 0.8566,0.1700 l 0.8566,-0.0210 l 0.8566,0.1584 l 0.8566,0.0299 l 0.8566,0.1377 l 0.8566,0.1701 l 0.8566,0.1312 l 0.8566,0.0693 l 0.8566,-0.0642 l 0.8566,-0.1720 l 0.8566,-0.1506 l 0.8566,0.1204 l 0.8566,-0.0600 l 0.8566,0.1652 l 0.8566,0.1700 l 0.8566,0.1661 l 0.8566,-0.0750 l 0.8566,0.1564 l 0.8566,0.1462 l 0.8566,-0.3529 l 0.8566,-0.3316 l 0.8566,-0.1231 l 0.8566,0.0628 l 0.8566,0.1633 l 0.8566,-0.2895 l 0.8566,-0.2096 l 0.8566,0.1014 l 0.8566,-0.6687 l 0.8566,-0.3397 l 0.8566,0.1695 l 0.8566,-0.2768 l 0.8566,-1.2746 l 0.8566,0.1691 l 0.8566,-0.9974 l 0.8566,-0.4098 l 0.8566,-0.3977 l 0.8566,0.0963 l 0.8566,0.0937 l 0.8566,0.0493 l 0.8566,0.1704 l 0.8566,-0.9726 l 0.8566,0.1653 l 0.8566,-0.1180 l 0.8566,-0.0450 l 0.8566,-0.3392 l 0.8566,-0.0629 l 0.8566,0.1288 l 0.8566,0.1671 l 0.8566,-0.5162 l 0.8566,-0.2394 l 0.8566,0.1310 l 0.8566,0.1574 l 0.8566,0.1422 l 0.8566,0.1636 l 0.8566,0.1464 l 0.8566,0.1648 l 0.8566,0.1283 l 0.8566,0.1585 l 0.8566,0.0755 l 0.8566,0.0345 l 0.8566,-0.2104 l 0.8566,0.1627 l 0.8566,0.1593 l 0.8566,-0.1166 l 0.8566,0.1574 l 0.8566,-0.0435 l 0.8566,0.0308 l 0.8566,0.0700 l 0.8566,-0.1027 l 0.8566,0.1627 l 0.8566,0.1534 l 0.8566,0.1643 l 0.8566,0.1482 l 0.8566,0.0037 l 0.8566,0.0870 l 0.8566,-0.2402 l 0.8566,0.0007 l 0.8566,-0.0361 l 0.8566,0.0223 l 0.8566,0.1659 l 0.8566,0.1445 l 0.8566,0.0786 l 0.8566,-0.2866 l 0.8566,0.1104 l 0.8566,0.0543 l 0.8566,0.0469 l 0.8566,0.1231 l 0.8566,-0.0383 l 0.8566,0.1145 l 0.8566,-0.2295 l 0.8566,-0.1243 l 0.8566,0.1637 l 0.8566,0.1648 l 0.8566,0.1562 l 0.8566,0.0745 l 0.8566,0.1640 l 0.8566,-0.0896 l 0.8566,0.0603 l 0.8566,0.1580 l 0.8566,0.1586 l 0.8566,-0.0697 "/>
  </g>
  <g stroke-linejoin="miter" stroke-opacity="0.6" fill-opacity="0.0" stroke="rgb(31,119,180)" stroke-width="0.5375866070619203" fill="rgb(0,0,0)" stroke-linecap="butt" stroke-miterlimit="10.0">
    <path d="M 81.3871,326.5045 l 0.8566,-0.1978 l 0.8566,0.6896 l 0.8566,-0.7708 l 0.8566,0.7037 l 0.8566,1.2241 l 0.8566,-0.1713 l 0.8566,-0.3165 l 0.8566,0.3374 l 0.8566,0.0803 l 0.8566,0.1970 l 0.8566,-0.0041 l 0.8566,0.0085 l 0.8566,-0.1265 l 0.8566,-0.9670 l 0.8566,-0.0860 l 0.8566,0.1638 l 0.8566,0.6066 l 0.8566,-0.4916 l 0.8566,-0.1351 l 0.8566,-1.6968 l 0.8566,-0.0645 l 0.8566,0.6022 l 0.8566,-1.0279 l 0.8566,-1.6235 l 0.8566,-0.9794 l 0.8566,4.9256 l 0.8566,0.4781 l 0.8566,0.5098 l 0.8566,-0.3097 l 0.8566,-0.1308 l 0.8566,-0.5701 l 0.8566,-0.7557 l 0.8566,1.2893 l 0.8566,-1.4129 l 0.8566,-0.6895 l 0.8566,0.6179 l 0.8566,-0.4947 l 0.8566,-1.4184 l 0.8566,-2.2939 l 0.8566,0.3400 l 0.8566,1.2956 l 0.8566,-1.5939 l 0.8566,-1.7609 l 0.8566,-1.5274 l 0.8566,1.8914 l 0.8566,0.9328 l 0.8566,1.2063 l 0.8566,-1.7409 l 0.8566,-0.0862 l 0.8566,1.2350 l 0.8566,-0.8461 l 0.8566,-3.1455 l 0.8566,-1.5854 l 0.8566,2.8078 l 0.8566,-2.4918 l 0.8566,-1.9662 l 0.8566,2.8264 l 0.8566,-1.9998 l 0.8566,3.0039 l 0.8566,-1.0802 l 0.8566,-0.8205 l 0.8566,0.7033 l 0.8566,3.0293 l 0.8566,-0.7320 l 0.8566,-0.7062 l 0.8566,-0.7534 l 0.8566,-0.4539 l 0.8566,-0.3150 l 0.8566,-0.0379 l 0.8566,0.0573 l 0.8566,-0.1012 l 0.8566,0.7818 l 0.8566,0.7730 l 0.8566,1.0192 l 0.8566,-1.3017 l 0.8566,-0.4000 l 0.8566,-0.4681 l 0.8566,1.5802 l 0.8566,0.7692 l 0.8566,0.1220 l 0.8566,-1.0242 l 0.8566,0.6817 l 0.8566,-0.7759 l 0.8566,0.5829 l 0.8566,0.3816 l 0.8566,0.9671 l 0.8566,0.1073 l 0.8566,0.6158 l 0.8566,0.2329 l 0.8566,-0.0048 l 0.8566,0.1928 l 0.8566,0.1176 l 0.8566,0.0099 l 0.8566,-0.2248 l 0.8566,-0.6533 l 0.8566,-0.1290 l 0.8566,0.1610 l 0.8566,-0.4692 l 0.8566,-0.7967 l 0.8566,-0.4543 l 0.8566,0.0050 l 0.8566,1.0866 l 0.8566,-0.4047 l 0.8566,1.5707 l 0.8566,0.1485 l 0.8566,0.1837 l 0.8566,-0.0991 l 0.8566,0.2447 l 0.8566,-0.0370 l 0.8566,-0.2188 l 0.8566,0.3149 l 0.8566,0.0547 l 0.8566,0.0178 l 0.8566,-0.0117 l 0.8566,0.0824 l 0.8566,0.0023 l 0.8566,-0.0258 l 0.8566,0.0149 l 0.8566,0.0187 l 0.8566,0.0170 l 0.8566,-0.0207 l 0.8566,0.0402 l 0.8566,-0.0594 l 0.8566,-0.1176 l 0.8566,0.2389 l 0.8566,-0.2756 l 0.8566,0.5105 l 0.8566,-0.0025 l 0.8566,0.0631 l 0.8566,0.0239 l 0.8566,0.0008 l 0.8566,-0.0305 l 0.8566,-0.0470 l 0.8566,-0.3216 l 0.8566,0.2877 l 0.8566,-0.0377 l 0.8566,0.0660 l 0.8566,0.0810 l 0.8566,-0.2953 l 0.8566,0.3777 l 0.8566,-0.2127 l 0.8566,-0.3159 l 0.8566,0.3185 l 0.8566,-0.4685 l 0.8566,0.1877 l 0.8566,0.0972 l 0.8566,0.5987 l 0.8566,-0.1028 l 0.8566,0.1054 l 0.8566,-0.1278 l 0.8566,0.2487 l 0.8566,-0.0764 l 0.8566,0.2128 l 0.8566,0.0026 l 0.8566,-0.1428 l 0.8566,-0.4173 l 0.8566,-0.8016 l 0.8566,-1.1950 l 0.8566,0.9985 l 0.8566,-0.4504 l 0.8566,1.0614 l 0.8566,-0.3894 l 0.8566,-0.8174 l 0.8566,1.0351 l 0.8566,0.2110 l 0.8566,0.0390 l 0.8566,0.2242 l 0.8566,1.1650 l 0.8566,-0.1269 l 0.8566,0.2288 l 0.8566,-0.1296 l 0.8566,-0.2379 l 0.8566,0.4462 l 0.8566,0.0980 l 0.8566,-0.1745 l 0.8566,0.4407 l 0.8566,0.2481 l 0.8566,0.2254 l 0.8566,-0.0163 l 0.8566,0.0698 l 0.8566,0.0935 l 0.8566,-0.0409 l 0.8566,0.1441 l 0.8566,-0.0442 l 0.8566,-0.2517 l 0.8566,0.1622 l 0.8566,-0.3641 l 0.8566,-0.4187 l 0.8566,0.5410 l 0.8566,0.0380 l 0.8566,-0.3448 l 0.8566,-0.0932 l 0.8566,0.2305 l 0.8566,-0.4617 l 0.8566,0.5347 l 0.8566,-1.1274 l 0.8566,0.5018 l 0.8566,-0.5919 l 0.8566,-0.4884 l 0.8566,-1.9829 l 0.8566,1.2409 l 0.8566,0.1606 l 0.8566,-1.6914 l 0.8566,-0.1036 l 0.8566,-0.6692 l 0.8566,0.3056 l 0.8566,0.5161 l 0.8566,-1.2672 l 0.8566,0.9627 l 0.8566,0.5800 l 0.8566,0.4297 l 0.8566,-0.6554 l 0.8566,2.7660 l 0.8566,1.1996 l 0.8566,-0.4888 l 0.8566,-0.1437 l 0.8566,0.2427 l 0.8566,-0.3241 l 0.8566,0.0827 l 0.8566,-0.6215 l 0.8566,0.3107 l 0.8566,1.1532 l 0.8566,0.0312 l 0.8566,-0.0406 l 0.8566,-0.7297 l 0.8566,0.2670 l 0.8566,0.0965 l 0.8566,0.2782 l 0.8566,0.0194 l 0.8566,0.6442 l 0.8566,-0.0557 l 0.8566,0.1165 l 0.8566,0.0022 l 0.8566,-0.0405 l 0.8566,0.0952 l 0.8566,-0.0369 l 0.8566,0.1733 l 0.8566,0.0372 l 0.8566,-0.0624 l 0.8566,0.1120 l 0.8566,-0.0958 l 0.8566,-0.1658 l 0.8566,-0.5867 l 0.8566,0.3470 l 0.8566,0.6975 l 0.8566,0.1417 l 0.8566,0.0397 l 0.8566,-0.0073 l 0.8566,-0.0440 l 0.8566,-0.1024 l 0.8566,-0.1848 l 0.8566,-0.4250 l 0.8566,-0.5424 l 0.8566,-0.6871 l 0.8566,-0.2155 l 0.8566,-0.3646 l 0.8566,-1.1503 l 0.8566,-0.9855 l 0.8566,-0.2328 l 0.8566,2.0046 l 0.8566,-0.2493 l 0.8566,0.7082 l 0.8566,0.6021 l 0.8566,0.9140 l 0.8566,0.5695 l 0.8566,0.0179 l 0.8566,0.0010 l 0.8566,-0.0234 l 0.8566,0.0568 l 0.8566,0.1995 l 0.8566,-0.3731 l 0.8566,-0.8184 l 0.8566,-2.0373 l 0.8566,0.1168 l 0.8566,2.3887 l 0.8566,-0.7870 l 0.8566,0.7630 l 0.8566,0.2494 l 0.8566,0.4213 l 0.8566,-0.3945 l 0.8566,1.0880 l 0.8566,0.1638 l 0.8566,-0.2754 l 0.8566,0.0880 l 0.8566,-0.0077 l 0.8566,-0.0544 l 0.8566,-0.4708 l 0.8566,-1.4309 l 0.8566,0.5698 l 0.8566,-2.2314 l 0.8566,0.1078 l 0.8566,1.6265 l 0.8566,-1.4088 l 0.8566,0.8250 l 0.8566,0.2376 l 0.8566,0.6723 l 0.8566,0.7210 l 0.8566,0.1700 l 0.8566,0.6480 l 0.8566,0.1986 l 0.8566,-0.0024 l 0.8566,0.0304 l 0.8566,-0.0336 l 0.8566,0.0295 l 0.8566,0.0746 l 0.8566,-0.1679 l 0.8566,0.4433 l 0.8566,-0.0903 l 0.8566,0.3762 l 0.8566,0.0605 l 0.8566,-1.1734 l 0.8566,1.1351 l 0.8566,-0.6027 l 0.8566,-0.5442 l 0.8566,1.1243 l 0.8566,0.8251 l 0.8566,0.0452 l 0.8566,-0.1950 l 0.8566,-0.4540 l 0.8566,-0.1504 l 0.8566,0.7735 l 0.8566,-0.7387 l 0.8566,-0.4996 l 0.8566,-0.3890 l 0.8566,-1.0577 l 0.8566,1.7671 l 0.8566,1.2466 l 0.8566,0.0649 l 0.8566,-0.0427 l 0.8566,0.2583 l 0.8566,-0.7296 l 0.8566,-0.1523 l 0.8566,0.4102 l 0.8566,-0.4999 l 0.8566,-0.4315 l 0.8566,0.9619 l 0.8566,0.6740 l 0.8566,0.2369 l 0.8566,-0.0221 l 0.8566,0.0760 l 0.8566,-0.1410 l 0.8566,0.5476 l 0.8566,-0.0815 l 0.8566,-1.4582 l 0.8566,0.5029 l 0.8566,-1.8995 l 0.8566,0.4442 l 0.8566,-0.2418 l 0.8566,2.0750 l 0.8566,0.0393 l 0.8566,-0.3859 l 0.8566,-0.6914 l 0.8566,-0.9254 l 0.8566,0.1277 l 0.8566,0.8960 l 0.8566,-1.1337 l 0.8566,1.7091 l 0.8566,-0.0303 l 0.8566,-0.0770 l 0.8566,-0.3681 l 0.8566,0.6011 l 0.8566,0.4420 l 0.8566,0.2753 l 0.8566,-0.0154 l 0.8566,0.0903 l 0.8566,-0.2985 l 0.8566,-0.8704 l 0.8566,-0.8712 l 0.8566,-2.1691 l 0.8566,-3.1409 l 0.8566,0.1067 l 0.8566,-0.2660 l 0.8566,0.3721 l 0.8566,0.0460 l 0.8566,-0.3478 l 0.8566,0.5168 l 0.8566,-2.2823 l 0.8566,-0.5178 l 0.8566,-2.1156 l 0.8566,2.8106 l 0.8566,-0.7415 l 0.8566,-0.2270 l 0.8566,-1.0767 l 0.8566,1.6046 l 0.8566,-0.6728 l 0.8566,2.5800 l 0.8566,1.2700 l 0.8566,-0.3952 l 0.8566,1.0127 l 0.8566,0.3039 l 0.8566,-1.3389 l 0.8566,2.5898 l 0.8566,-0.0241 l 0.8566,-0.7640 l 0.8566,0.6285 l 0.8566,-0.4081 l 0.8566,-1.2032 l 0.8566,2.0824 l 0.8566,-0.0774 l 0.8566,-0.8258 l 0.8566,-1.1146 l 0.8566,-0.1589 l 0.8566,-0.7646 l 0.8566,-2.7871 l 0.8566,2.2562 l 0.8566,-1.5955 l 0.8566,-2.6236 l 0.8566,-1.2342 l 0.8566,-1.3758 l 0.8566,-2.0501 l 0.8566,1.8940 l 0.8566,2.9454 l 0.8566,-1.9283 l 0.8566,4.2777 l 0.8566,0.9787 l 0.8566,-1.2794 l 0.8566,0.1173 l 0.8566,0.9750 l 0.8566,0.0686 l 0.8566,0.3703 l 0.8566,0.9301 l 0.8566,-0.4782 l 0.8566,-0.1004 l 0.8566,-0.1984 l 0.8566,-0.7668 l 0.8566,1.3266 l 0.8566,-0.2509 l 0.8566,0.5773 l 0.8566,-1.3404 l 0.8566,-1.6770 l 0.8566,-0.8306 l 0.8566,-3.3950 l 0.8566,-0.6425 l 0.8566,1.4502 l 0.8566,2.8022 l 0.8566,-0.5350 l 0.8566,0.5803 l 0.8566,-1.5454 l 0.8566,-2.2241 l 0.8566,0.8548 l 0.8566,-0.1154 l 0.8566,2.5929 l 0.8566,-1.5995 l 0.8566,0.4214 l 0.8566,-4.2795 l 0.8566,0.5061 l 0.8566,2.4895 l 0.8566,-2.0831 l 0.8566,2.4601 l 0.8566,-2.0572 l 0.8566,4.1029 l 0.8566,-0.4934 l 0.8566,0.1310 l 0.8566,-0.7949 l 0.8566,0.1922 l 0.8566,0.1056 l 0.8566,-0.1603 l 0.8566,0.4450 l 0.8566,-0.9020 l 0.8566,0.5177 l 0.8566,-0.2351 l 0.8566,1.0511 l 0.8566,-0.1119 l 0.8566,0.4355 l 0.8566,-0.2026 l 0.8566,-0.5561 l 0.8566,-0.7345 l 0.8566,0.0559 l 0.8566,0.3056 l 0.8566,0.8304 l 0.8566,1.4120 l 0.8566,0.9488 l 0.8566,-0.1003 l 0.8566,-0.0549 l 0.8566,0.6182 l 0.8566,0.0725 l 0.8566,-0.0356 l 0.8566,-0.0543 l 0.8566,0.0563 l 0.8566,0.1204 l 0.8566,-0.0152 l 0.8566,-0.1942 l 0.8566,0.2035 l 0.8566,-0.2272 l 0.8566,0.0576 l 0.8566,0.1614 l 0.8566,-0.1258 l 0.8566,-0.0646 l 0.8566,0.1472 l 0.8566,0.1670 l 0.8566,-0.4197 l 0.8566,0.7635 l 0.8566,-0.2068 l 0.8566,-0.0896 l 0.8566,-0.7601 l 0.8566,0.1351 l 0.8566,-0.3208 l 0.8566,-0.5641 l 0.8566,1.3918 l 0.8566,-0.3965 l 0.8566,0.6055 l 0.8566,0.9115 l 0.8566,-0.0435 l 0.8566,0.1327 l 0.8566,-0.0212 l 0.8566,0.0161 l 0.8566,0.0095 l 0.8566,-0.4562 l 0.8566,0.4269 l 0.8566,0.7500 l 0.8566,0.0510 l 0.8566,-0.0733 l 0.8566,0.1804 l 0.8566,0.0016 l 0.8566,0.1381 l 0.8566,-0.0250 l 0.8566,-0.3330 l 0.8566,-1.5607 l 0.8566,-0.0814 l 0.8566,-1.4566 l 0.8566,-1.8589 l 0.8566,1.5540 l 0.8566,0.1568 l 0.8566,0.2214 l 0.8566,-0.9129 l 0.8566,0.7250 l 0.8566,0.6079 l 0.8566,-0.1958 l 0.8566,0.3266 l 0.8566,-1.2892 l 0.8566,0.8753 l 0.8566,-0.2837 l 0.8566,-0.7875 l 0.8566,-1.7594 l 0.8566,0.5804 l 0.8566,-0.2027 l 0.8566,-0.0585 l 0.8566,-0.3970 l 0.8566,0.4091 l 0.8566,0.7492 l 0.8566,1.0796 l 0.8566,0.3356 l 0.8566,0.7532 l 0.8566,-0.8604 l 0.8566,-1.1863 l 0.8566,0.1454 l 0.8566,-0.1507 l 0.8566,0.5677 l 0.8566,0.6654 l 0.8566,0.3964 l 0.8566,-0.9937 l 0.8566,-0.9471 l 0.8566,-1.2429 l 0.8566,0.2197 l 0.8566,-0.2399 l 0.8566,-2.4124 l 0.8566,0.8692 l 0.8566,0.0077 l 0.8566,1.8092 l 0.8566,-2.5022 l 0.8566,1.7530 l 0.8566,-1.1095 l 0.8566,0.4293 l 0.8566,-1.8682 l 0.8566,-1.0981 l 0.8566,-3.7701 l 0.8566,3.8834 l 0.8566,0.9765 l 0.8566,1.6655 l 0.8566,1.5262 l 0.8566,-1.1697 l 0.8566,-3.7320 l 0.8566,-1.0451 l 0.8566,-0.5008 l 0.8566,-0.4741 l 0.8566,0.5369 l 0.8566,3.3647 l 0.8566,-1.0074 l 0.8566,-0.0222 l 0.8566,0.0485 l 0.8566,-1.1307 l 0.8566,1.0170 l 0.8566,1.8294 l 0.8566,-0.9927 l 0.8566,2.1936 l 0.8566,1.8119 l 0.8566,-0.7274 l 0.8566,2.3150 l 0.8566,0.7026 l 0.8566,0.1539 l 0.8566,-0.3601 l 0.8566,-0.3949 l 0.8566,-0.2960 l 0.8566,0.7670 l 0.8566,0.1480 l 0.8566,0.5671 l 0.8566,-0.0252 l 0.8566,0.0972 l 0.8566,-0.1020 l 0.8566,-0.0366 l 0.8566,0.0596 l 0.8566,-0.0385 l 0.8566,-0.0816 l 0.8566,-0.0020 l 0.8566,0.3278 l 0.8566,0.0244 l 0.8566,0.0230 l 0.8566,-0.0909 l 0.8566,0.0178 l 0.8566,0.2243 l 0.8566,0.1263 l 0.8566,0.2470 l 0.8566,0.0063 l 0.8566,-0.1513 l 0.8566,-1.1298 l 0.8566,0.9645 l 0.8566,0.8193 l 0.8566,-0.4342 l 0.8566,-0.8054 l 0.8566,0.5825 l 0.8566,0.2057 l 0.8566,0.4018 l 0.8566,-0.6737 l 0.8566,0.0369 l 0.8566,0.7091 l 0.8566,-0.0389 l 0.8566,-0.3933 l 0.8566,0.1835 l 0.8566,0.3900 l 0.8566,0.0919 l 0.8566,-0.0009 l 0.8566,0.1837 l 0.8566,-0.0459 l 0.8566,-0.2228 l 0.8566,-0.6150 l 0.8566,-1.2730 l 0.8566,-0.0288 l 0.8566,0.0542 l 0.8566,0.5500 l 0.8566,-1.5138 l 0.8566,0.0657 l 0.8566,-1.2368 l 0.8566,1.1724 l 0.8566,0.1392 l 0.8566,-1.1027 l 0.8566,-0.7401 l 0.8566,-1.6108 l 0.8566,-2.0393 l 0.8566,0.0029 l 0.8566,1.8099 l 0.8566,-0.5912 l 0.8566,0.1621 l 0.8566,1.3461 l 0.8566,-0.8895 l 0.8566,-0.1642 l 0.8566,0.3406 l 0.8566,0.4854 l 0.8566,0.7063 l 0.8566,-1.1037 l 0.8566,-0.9434 l 0.8566,-0.6763 l 0.8566,2.3719 l 0.8566,1.2881 l 0.8566,0.5007 l 0.8566,-0.2049 l 0.8566,-0.0711 l 0.8566,-0.6166 l 0.8566,0.8589 l 0.8566,-0.0010 l 0.8566,0.5893 l 0.8566,-0.3182 l 0.8566,0.1807 l 0.8566,-0.0546 l 0.8566,0.1090 l 0.8566,-0.0383 l 0.8566,-0.4435 l 0.8566,-0.1400 l 0.8566,-0.0320 l 0.8566,0.4490 l 0.8566,-0.3563 l 0.8566,-0.4088 l 0.8566,0.7401 l 0.8566,-0.8888 l 0.8566,1.0356 l 0.8566,0.3117 l 0.8566,-0.6917 l 0.8566,0.4264 l 0.8566,-0.0123 l 0.8566,-0.3693 l 0.8566,-0.5062 l 0.8566,-0.2418 l 0.8566,-1.8867 l 0.8566,0.9520 l 0.8566,0.8084 l 0.8566,-2.0213 l 0.8566,0.7897 l 0.8566,-0.7950 l 0.8566,0.5041 l 0.8566,-0.0661 l 0.8566,1.3781 l 0.8566,-0.2367 l 0.8566,-0.9156 l 0.8566,-0.4675 l 0.8566,-0.0221 l 0.8566,0.6853 l 0.8566,-0.8221 l 0.8566,-1.4140 l 0.8566,2.1693 l 0.8566,1.5936 l 0.8566,-0.4273 l 0.8566,-1.0657 l 0.8566,-0.1301 l 0.8566,0.0730 l 0.8566,-0.0971 l 0.8566,1.4021 l 0.8566,-0.2013 l 0.8566,-0.2925 l 0.8566,-1.6847 l 0.8566,-2.1178 l 0.8566,-1.9032 l 0.8566,1.6266 l 0.8566,0.4489 l 0.8566,2.5804 l 0.8566,1.7289 l 0.8566,0.5514 l 0.8566,1.3915 l 0.8566,-0.4935 l 0.8566,0.0192 l 0.8566,0.8122 l 0.8566,-0.8719 l 0.8566,-0.0296 l 0.8566,1.7340 l 0.8566,0.3097 l 0.8566,-0.3314 l 0.8566,-0.3277 l 0.8566,-0.4164 l 0.8566,0.5500 l 0.8566,0.0057 l 0.8566,1.1152 l 0.8566,0.0054 l 0.8566,-0.0441 l 0.8566,-0.2900 l 0.8566,-0.8198 l 0.8566,-0.8754 l 0.8566,0.4941 l 0.8566,-0.0911 l 0.8566,-1.7388 l 0.8566,1.8220 l 0.8566,0.4391 l 0.8566,0.2324 l 0.8566,-0.2605 l 0.8566,0.1711 l 0.8566,-0.2384 l 0.8566,0.1528 l 0.8566,-0.3287 l 0.8566,-0.1702 l 0.8566,-0.5907 l 0.8566,0.8544 l 0.8566,-1.1508 l 0.8566,-0.1472 l 0.8566,-0.1945 l 0.8566,1.3691 l 0.8566,-0.1679 l 0.8566,-0.9054 l 0.8566,-0.8807 l 0.8566,0.9316 l 0.8566,-1.2352 l 0.8566,-0.1376 l 0.8566,0.4205 l 0.8566,0.2128 l 0.8566,-0.3049 l 0.8566,-1.0594 l 0.8566,-0.8081 l 0.8566,-2.0779 l 0.8566,1.7934 l 0.8566,1.6325 l 0.8566,-1.0107 l 0.8566,0.0337 l 0.8566,0.5527 l 0.8566,0.9228 l 0.8566,-1.6517 l 0.8566,-0.6524 l 0.8566,-1.0148 l 0.8566,1.3948 l 0.8566,-0.5503 l 0.8566,1.5943 l 0.8566,0.6821 l 0.8566,-1.4811 l 0.8566,1.6891 l 0.8566,-0.0247 l 0.8566,0.0533 l 0.8566,-0.1496 l 0.8566,0.7450 l 0.8566,0.0244 l 0.8566,-0.9447 l 0.8566,-0.7281 l 0.8566,0.2904 l 0.8566,-0.1071 l 0.8566,1.3026 "/>
  </g>
  <g stroke-linejoin="miter" stroke-opacity="0.0" fill-opacity="0.0" stroke="rgb(0,0,0)" fill-rule="evenodd" stroke-width="0.0" fill="rgb(0,0,0)" stroke-linecap="butt" stroke-miterlimit="10.0">
    <path d="M 570.3861,60.7931 l -0.0000,-23.4884 h -293.6047 l -0.0000,23.4884 Z"/>
  </g>
  <g stroke-linejoin="miter" stroke-opacity="1.0" fill-opacity="0.6" font-size="21.35306819179892px" stroke="rgb(0,0,0)" fill-rule="evenodd" stroke-width="0.0" fill="rgb(0,0,0)" stroke-linecap="butt" stroke-miterlimit="10.0">
    <text dominant-baseline="middle" transform="matrix(1.0000,-0.0000,0.0000,1.0000,423.5837,49.0489)" stroke="none" text-anchor="middle">auto-correlation estimate
    </text>
  </g>
  <g stroke-linejoin="miter" stroke-opacity="0.0" fill-opacity="0.0" stroke="rgb(0,0,0)" fill-rule="evenodd" stroke-width="0.0" fill="rgb(0,0,0)" stroke-linecap="butt" stroke-miterlimit="10.0">
    <path d="M 617.3628,93.4067 l -0.0000,-23.4884 h -387.5582 l -0.0000,23.4884 Z"/>
  </g>
  <g stroke-linejoin="miter" stroke-opacity="1.0" fill-opacity="0.6" font-size="21.35306819179892px" stroke="rgb(0,0,0)" fill-rule="evenodd" stroke-width="0.0" fill="rgb(0,0,0)" stroke-linecap="butt" stroke-miterlimit="10.0">
    <text dominant-baseline="middle" transform="matrix(1.0000,-0.0000,0.0000,1.0000,423.5837,81.6625)" stroke="none" text-anchor="middle">beta = 1 period = 1.0e-2 r = 0.99
    </text>
  </g>
  <g stroke-linejoin="miter" stroke-opacity="0.0" fill-opacity="0.1" stroke="rgb(0,0,0)" stroke-width="0.0" fill="rgb(0,0,0)" stroke-linecap="butt" stroke-miterlimit="10.0">
    <path d="M 72.2619,330.6630 l -0.0000,-228.1311 h -4.5626 l -0.0000,228.1311 Z"/>
  </g>
  <g stroke-linejoin="miter" stroke-opacity="0.0" fill-opacity="0.0" stroke="rgb(0,0,0)" fill-rule="evenodd" stroke-width="0.0" fill="rgb(0,0,0)" stroke-linecap="butt" stroke-miterlimit="10.0">
    <path d="M 61.9960,118.6797 l -0.0000,-15.6589 h -23.4884 l -0.0000,15.6589 Z"/>
  </g>
  <g stroke-linejoin="miter" stroke-opacity="1.0" fill-opacity="0.6" font-size="14.235378794532611px" stroke="rgb(0,0,0)" fill-rule="evenodd" stroke-width="0.0" fill="rgb(0,0,0)" stroke-linecap="butt" stroke-miterlimit="10.0">
    <text dominant-baseline="middle" transform="matrix(1.0000,-0.0000,0.0000,1.0000,50.2518,110.8503)" stroke="none" text-anchor="middle">2.0
    </text>
  </g>
  <g stroke-linejoin="miter" stroke-opacity="0.6" fill-opacity="0.0" stroke="rgb(0,0,0)" stroke-width="2.6879330353096016" fill="rgb(0,0,0)" stroke-linecap="butt" stroke-miterlimit="10.0">
    <path d="M 65.4180,109.4267 h 6.8439 "/>
  </g>
  <g stroke-linejoin="miter" stroke-opacity="0.0" fill-opacity="0.0" stroke="rgb(0,0,0)" fill-rule="evenodd" stroke-width="0.0" fill="rgb(0,0,0)" stroke-linecap="butt" stroke-miterlimit="10.0">
    <path d="M 61.9960,139.2646 l -0.0000,-15.6589 h -23.4884 l -0.0000,15.6589 Z"/>
  </g>
  <g stroke-linejoin="miter" stroke-opacity="1.0" fill-opacity="0.6" font-size="14.235378794532611px" stroke="rgb(0,0,0)" fill-rule="evenodd" stroke-width="0.0" fill="rgb(0,0,0)" stroke-linecap="butt" stroke-miterlimit="10.0">
    <text dominant-baseline="middle" transform="matrix(1.0000,-0.0000,0.0000,1.0000,50.2518,131.4352)" stroke="none" text-anchor="middle">1.8
    </text>
  </g>
  <g stroke-linejoin="miter" stroke-opacity="0.6" fill-opacity="0.0" stroke="rgb(0,0,0)" stroke-width="2.6879330353096016" fill="rgb(0,0,0)" stroke-linecap="butt" stroke-miterlimit="10.0">
    <path d="M 65.4180,130.0116 h 6.8439 "/>
  </g>
  <g stroke-linejoin="miter" stroke-opacity="0.0" fill-opacity="0.0" stroke="rgb(0,0,0)" fill-rule="evenodd" stroke-width="0.0" fill="rgb(0,0,0)" stroke-linecap="butt" stroke-miterlimit="10.0">
    <path d="M 61.9960,159.8495 l -0.0000,-15.6589 h -23.4884 l -0.0000,15.6589 Z"/>
  </g>
  <g stroke-linejoin="miter" stroke-opacity="1.0" fill-opacity="0.6" font-size="14.235378794532611px" stroke="rgb(0,0,0)" fill-rule="evenodd" stroke-width="0.0" fill="rgb(0,0,0)" stroke-linecap="butt" stroke-miterlimit="10.0">
    <text dominant-baseline="middle" transform="matrix(1.0000,-0.0000,0.0000,1.0000,50.2518,152.0201)" stroke="none" text-anchor="middle">1.6
    </text>
  </g>
  <g stroke-linejoin="miter" stroke-opacity="0.6" fill-opacity="0.0" stroke="rgb(0,0,0)" stroke-width="2.6879330353096016" fill="rgb(0,0,0)" stroke-linecap="butt" stroke-miterlimit="10.0">
    <path d="M 65.4180,150.5965 h 6.8439 "/>
  </g>
  <g stroke-linejoin="miter" stroke-opacity="0.0" fill-opacity="0.0" stroke="rgb(0,0,0)" fill-rule="evenodd" stroke-width="0.0" fill="rgb(0,0,0)" stroke-linecap="butt" stroke-miterlimit="10.0">
    <path d="M 61.9960,180.4344 l -0.0000,-15.6589 h -23.4884 l -0.0000,15.6589 Z"/>
  </g>
  <g stroke-linejoin="miter" stroke-opacity="1.0" fill-opacity="0.6" font-size="14.235378794532611px" stroke="rgb(0,0,0)" fill-rule="evenodd" stroke-width="0.0" fill="rgb(0,0,0)" stroke-linecap="butt" stroke-miterlimit="10.0">
    <text dominant-baseline="middle" transform="matrix(1.0000,-0.0000,0.0000,1.0000,50.2518,172.6049)" stroke="none" text-anchor="middle">1.4
    </text>
  </g>
  <g stroke-linejoin="miter" stroke-opacity="0.6" fill-opacity="0.0" stroke="rgb(0,0,0)" stroke-width="2.6879330353096016" fill="rgb(0,0,0)" stroke-linecap="butt" stroke-miterlimit="10.0">
    <path d="M 65.4180,171.1814 h 6.8439 "/>
  </g>
  <g stroke-linejoin="miter" stroke-opacity="0.0" fill-opacity="0.0" stroke="rgb(0,0,0)" fill-rule="evenodd" stroke-width="0.0" fill="rgb(0,0,0)" stroke-linecap="butt" stroke-miterlimit="10.0">
    <path d="M 61.9960,201.0193 l -0.0000,-15.6589 h -23.4884 l -0.0000,15.6589 Z"/>
  </g>
  <g stroke-linejoin="miter" stroke-opacity="1.0" fill-opacity="0.6" font-size="14.235378794532611px" stroke="rgb(0,0,0)" fill-rule="evenodd" stroke-width="0.0" fill="rgb(0,0,0)" stroke-linecap="butt" stroke-miterlimit="10.0">
    <text dominant-baseline="middle" transform="matrix(1.0000,-0.0000,0.0000,1.0000,50.2518,193.1898)" stroke="none" text-anchor="middle">1.2
    </text>
  </g>
  <g stroke-linejoin="miter" stroke-opacity="0.6" fill-opacity="0.0" stroke="rgb(0,0,0)" stroke-width="2.6879330353096016" fill="rgb(0,0,0)" stroke-linecap="butt" stroke-miterlimit="10.0">
    <path d="M 65.4180,191.7663 h 6.8439 "/>
  </g>
  <g stroke-linejoin="miter" stroke-opacity="0.0" fill-opacity="0.0" stroke="rgb(0,0,0)" fill-rule="evenodd" stroke-width="0.0" fill="rgb(0,0,0)" stroke-linecap="butt" stroke-miterlimit="10.0">
    <path d="M 61.9960,221.6042 l -0.0000,-15.6589 h -23.4884 l -0.0000,15.6589 Z"/>
  </g>
  <g stroke-linejoin="miter" stroke-opacity="1.0" fill-opacity="0.6" font-size="14.235378794532611px" stroke="rgb(0,0,0)" fill-rule="evenodd" stroke-width="0.0" fill="rgb(0,0,0)" stroke-linecap="butt" stroke-miterlimit="10.0">
    <text dominant-baseline="middle" transform="matrix(1.0000,-0.0000,0.0000,1.0000,50.2518,213.7747)" stroke="none" text-anchor="middle">1.0
    </text>
  </g>
  <g stroke-linejoin="miter" stroke-opacity="0.6" fill-opacity="0.0" stroke="rgb(0,0,0)" stroke-width="2.6879330353096016" fill="rgb(0,0,0)" stroke-linecap="butt" stroke-miterlimit="10.0">
    <path d="M 65.4180,212.3512 h 6.8439 "/>
  </g>
  <g stroke-linejoin="miter" stroke-opacity="0.0" fill-opacity="0.0" stroke="rgb(0,0,0)" fill-rule="evenodd" stroke-width="0.0" fill="rgb(0,0,0)" stroke-linecap="butt" stroke-miterlimit="10.0">
    <path d="M 61.9960,242.1891 l -0.0000,-15.6589 h -23.4884 l -0.0000,15.6589 Z"/>
  </g>
  <g stroke-linejoin="miter" stroke-opacity="1.0" fill-opacity="0.6" font-size="14.235378794532611px" stroke="rgb(0,0,0)" fill-rule="evenodd" stroke-width="0.0" fill="rgb(0,0,0)" stroke-linecap="butt" stroke-miterlimit="10.0">
    <text dominant-baseline="middle" transform="matrix(1.0000,-0.0000,0.0000,1.0000,50.2518,234.3596)" stroke="none" text-anchor="middle">0.8
    </text>
  </g>
  <g stroke-linejoin="miter" stroke-opacity="0.6" fill-opacity="0.0" stroke="rgb(0,0,0)" stroke-width="2.6879330353096016" fill="rgb(0,0,0)" stroke-linecap="butt" stroke-miterlimit="10.0">
    <path d="M 65.4180,232.9361 h 6.8439 "/>
  </g>
  <g stroke-linejoin="miter" stroke-opacity="0.0" fill-opacity="0.0" stroke="rgb(0,0,0)" fill-rule="evenodd" stroke-width="0.0" fill="rgb(0,0,0)" stroke-linecap="butt" stroke-miterlimit="10.0">
    <path d="M 61.9960,262.7740 l -0.0000,-15.6589 h -23.4884 l -0.0000,15.6589 Z"/>
  </g>
  <g stroke-linejoin="miter" stroke-opacity="1.0" fill-opacity="0.6" font-size="14.235378794532611px" stroke="rgb(0,0,0)" fill-rule="evenodd" stroke-width="0.0" fill="rgb(0,0,0)" stroke-linecap="butt" stroke-miterlimit="10.0">
    <text dominant-baseline="middle" transform="matrix(1.0000,-0.0000,0.0000,1.0000,50.2518,254.9445)" stroke="none" text-anchor="middle">0.6
    </text>
  </g>
  <g stroke-linejoin="miter" stroke-opacity="0.6" fill-opacity="0.0" stroke="rgb(0,0,0)" stroke-width="2.6879330353096016" fill="rgb(0,0,0)" stroke-linecap="butt" stroke-miterlimit="10.0">
    <path d="M 65.4180,253.5210 h 6.8439 "/>
  </g>
  <g stroke-linejoin="miter" stroke-opacity="0.0" fill-opacity="0.0" stroke="rgb(0,0,0)" fill-rule="evenodd" stroke-width="0.0" fill="rgb(0,0,0)" stroke-linecap="butt" stroke-miterlimit="10.0">
    <path d="M 61.9960,283.3588 l -0.0000,-15.6589 h -23.4884 l -0.0000,15.6589 Z"/>
  </g>
  <g stroke-linejoin="miter" stroke-opacity="1.0" fill-opacity="0.6" font-size="14.235378794532611px" stroke="rgb(0,0,0)" fill-rule="evenodd" stroke-width="0.0" fill="rgb(0,0,0)" stroke-linecap="butt" stroke-miterlimit="10.0">
    <text dominant-baseline="middle" transform="matrix(1.0000,-0.0000,0.0000,1.0000,50.2518,275.5294)" stroke="none" text-anchor="middle">0.4
    </text>
  </g>
  <g stroke-linejoin="miter" stroke-opacity="0.6" fill-opacity="0.0" stroke="rgb(0,0,0)" stroke-width="2.6879330353096016" fill="rgb(0,0,0)" stroke-linecap="butt" stroke-miterlimit="10.0">
    <path d="M 65.4180,274.1058 h 6.8439 "/>
  </g>
  <g stroke-linejoin="miter" stroke-opacity="0.0" fill-opacity="0.0" stroke="rgb(0,0,0)" fill-rule="evenodd" stroke-width="0.0" fill="rgb(0,0,0)" stroke-linecap="butt" stroke-miterlimit="10.0">
    <path d="M 61.9960,303.9437 l -0.0000,-15.6589 h -23.4884 l -0.0000,15.6589 Z"/>
  </g>
  <g stroke-linejoin="miter" stroke-opacity="1.0" fill-opacity="0.6" font-size="14.235378794532611px" stroke="rgb(0,0,0)" fill-rule="evenodd" stroke-width="0.0" fill="rgb(0,0,0)" stroke-linecap="butt" stroke-miterlimit="10.0">
    <text dominant-baseline="middle" transform="matrix(1.0000,-0.0000,0.0000,1.0000,50.2518,296.1143)" stroke="none" text-anchor="middle">0.2
    </text>
  </g>
  <g stroke-linejoin="miter" stroke-opacity="0.6" fill-opacity="0.0" stroke="rgb(0,0,0)" stroke-width="2.6879330353096016" fill="rgb(0,0,0)" stroke-linecap="butt" stroke-miterlimit="10.0">
    <path d="M 65.4180,294.6907 h 6.8439 "/>
  </g>
  <g stroke-linejoin="miter" stroke-opacity="0.0" fill-opacity="0.0" stroke="rgb(0,0,0)" fill-rule="evenodd" stroke-width="0.0" fill="rgb(0,0,0)" stroke-linecap="butt" stroke-miterlimit="10.0">
    <path d="M 61.9960,324.5286 l -0.0000,-15.6589 h -23.4884 l -0.0000,15.6589 Z"/>
  </g>
  <g stroke-linejoin="miter" stroke-opacity="1.0" fill-opacity="0.6" font-size="14.235378794532611px" stroke="rgb(0,0,0)" fill-rule="evenodd" stroke-width="0.0" fill="rgb(0,0,0)" stroke-linecap="butt" stroke-miterlimit="10.0">
    <text dominant-baseline="middle" transform="matrix(1.0000,-0.0000,0.0000,1.0000,50.2518,316.6992)" stroke="none" text-anchor="middle">0.0
    </text>
  </g>
  <g stroke-linejoin="miter" stroke-opacity="0.6" fill-opacity="0.0" stroke="rgb(0,0,0)" stroke-width="2.6879330353096016" fill="rgb(0,0,0)" stroke-linecap="butt" stroke-miterlimit="10.0">
    <path d="M 65.4180,315.2756 h 6.8439 "/>
  </g>
  <g stroke-linejoin="miter" stroke-opacity="0.0" fill-opacity="0.1" stroke="rgb(0,0,0)" stroke-width="0.0" fill="rgb(0,0,0)" stroke-linecap="butt" stroke-miterlimit="10.0">
    <path d="M 765.7803,344.3508 l -0.0000,-4.5626 h -684.3932 l -0.0000,4.5626 Z"/>
  </g>
  <g stroke-linejoin="miter" stroke-opacity="0.0" fill-opacity="0.0" stroke="rgb(0,0,0)" fill-rule="evenodd" stroke-width="0.0" fill="rgb(0,0,0)" stroke-linecap="butt" stroke-miterlimit="10.0">
    <path d="M 735.5530,365.7130 l -0.0000,-15.6589 h -23.4884 l -0.0000,15.6589 Z"/>
  </g>
  <g stroke-linejoin="miter" stroke-opacity="1.0" fill-opacity="0.6" font-size="14.235378794532611px" stroke="rgb(0,0,0)" fill-rule="evenodd" stroke-width="0.0" fill="rgb(0,0,0)" stroke-linecap="butt" stroke-miterlimit="10.0">
    <text dominant-baseline="middle" transform="matrix(1.0000,-0.0000,0.0000,1.0000,723.8088,357.8836)" stroke="none" text-anchor="middle">800
    </text>
  </g>
  <g stroke-linejoin="miter" stroke-opacity="0.6" fill-opacity="0.0" stroke="rgb(0,0,0)" stroke-width="2.6879330353096016" fill="rgb(0,0,0)" stroke-linecap="butt" stroke-miterlimit="10.0">
    <path d="M 723.8088,339.7882 v 6.8439 "/>
  </g>
  <g stroke-linejoin="miter" stroke-opacity="0.0" fill-opacity="0.0" stroke="rgb(0,0,0)" fill-rule="evenodd" stroke-width="0.0" fill="rgb(0,0,0)" stroke-linecap="butt" stroke-miterlimit="10.0">
    <path d="M 649.8968,365.7130 l -0.0000,-15.6589 h -23.4884 l -0.0000,15.6589 Z"/>
  </g>
  <g stroke-linejoin="miter" stroke-opacity="1.0" fill-opacity="0.6" font-size="14.235378794532611px" stroke="rgb(0,0,0)" fill-rule="evenodd" stroke-width="0.0" fill="rgb(0,0,0)" stroke-linecap="butt" stroke-miterlimit="10.0">
    <text dominant-baseline="middle" transform="matrix(1.0000,-0.0000,0.0000,1.0000,638.1526,357.8836)" stroke="none" text-anchor="middle">700
    </text>
  </g>
  <g stroke-linejoin="miter" stroke-opacity="0.6" fill-opacity="0.0" stroke="rgb(0,0,0)" stroke-width="2.6879330353096016" fill="rgb(0,0,0)" stroke-linecap="butt" stroke-miterlimit="10.0">
    <path d="M 638.1526,339.7882 v 6.8439 "/>
  </g>
  <g stroke-linejoin="miter" stroke-opacity="0.0" fill-opacity="0.0" stroke="rgb(0,0,0)" fill-rule="evenodd" stroke-width="0.0" fill="rgb(0,0,0)" stroke-linecap="butt" stroke-miterlimit="10.0">
    <path d="M 564.2405,365.7130 l -0.0000,-15.6589 h -23.4884 l -0.0000,15.6589 Z"/>
  </g>
  <g stroke-linejoin="miter" stroke-opacity="1.0" fill-opacity="0.6" font-size="14.235378794532611px" stroke="rgb(0,0,0)" fill-rule="evenodd" stroke-width="0.0" fill="rgb(0,0,0)" stroke-linecap="butt" stroke-miterlimit="10.0">
    <text dominant-baseline="middle" transform="matrix(1.0000,-0.0000,0.0000,1.0000,552.4963,357.8836)" stroke="none" text-anchor="middle">600
    </text>
  </g>
  <g stroke-linejoin="miter" stroke-opacity="0.6" fill-opacity="0.0" stroke="rgb(0,0,0)" stroke-width="2.6879330353096016" fill="rgb(0,0,0)" stroke-linecap="butt" stroke-miterlimit="10.0">
    <path d="M 552.4963,339.7882 v 6.8439 "/>
  </g>
  <g stroke-linejoin="miter" stroke-opacity="0.0" fill-opacity="0.0" stroke="rgb(0,0,0)" fill-rule="evenodd" stroke-width="0.0" fill="rgb(0,0,0)" stroke-linecap="butt" stroke-miterlimit="10.0">
    <path d="M 478.5843,365.7130 l -0.0000,-15.6589 h -23.4884 l -0.0000,15.6589 Z"/>
  </g>
  <g stroke-linejoin="miter" stroke-opacity="1.0" fill-opacity="0.6" font-size="14.235378794532611px" stroke="rgb(0,0,0)" fill-rule="evenodd" stroke-width="0.0" fill="rgb(0,0,0)" stroke-linecap="butt" stroke-miterlimit="10.0">
    <text dominant-baseline="middle" transform="matrix(1.0000,-0.0000,0.0000,1.0000,466.8401,357.8836)" stroke="none" text-anchor="middle">500
    </text>
  </g>
  <g stroke-linejoin="miter" stroke-opacity="0.6" fill-opacity="0.0" stroke="rgb(0,0,0)" stroke-width="2.6879330353096016" fill="rgb(0,0,0)" stroke-linecap="butt" stroke-miterlimit="10.0">
    <path d="M 466.8401,339.7882 v 6.8439 "/>
  </g>
  <g stroke-linejoin="miter" stroke-opacity="0.0" fill-opacity="0.0" stroke="rgb(0,0,0)" fill-rule="evenodd" stroke-width="0.0" fill="rgb(0,0,0)" stroke-linecap="butt" stroke-miterlimit="10.0">
    <path d="M 392.9281,365.7130 l -0.0000,-15.6589 h -23.4884 l -0.0000,15.6589 Z"/>
  </g>
  <g stroke-linejoin="miter" stroke-opacity="1.0" fill-opacity="0.6" font-size="14.235378794532611px" stroke="rgb(0,0,0)" fill-rule="evenodd" stroke-width="0.0" fill="rgb(0,0,0)" stroke-linecap="butt" stroke-miterlimit="10.0">
    <text dominant-baseline="middle" transform="matrix(1.0000,-0.0000,0.0000,1.0000,381.1839,357.8836)" stroke="none" text-anchor="middle">400
    </text>
  </g>
  <g stroke-linejoin="miter" stroke-opacity="0.6" fill-opacity="0.0" stroke="rgb(0,0,0)" stroke-width="2.6879330353096016" fill="rgb(0,0,0)" stroke-linecap="butt" stroke-miterlimit="10.0">
    <path d="M 381.1839,339.7882 v 6.8439 "/>
  </g>
  <g stroke-linejoin="miter" stroke-opacity="0.0" fill-opacity="0.0" stroke="rgb(0,0,0)" fill-rule="evenodd" stroke-width="0.0" fill="rgb(0,0,0)" stroke-linecap="butt" stroke-miterlimit="10.0">
    <path d="M 307.2719,365.7130 l -0.0000,-15.6589 h -23.4884 l -0.0000,15.6589 Z"/>
  </g>
  <g stroke-linejoin="miter" stroke-opacity="1.0" fill-opacity="0.6" font-size="14.235378794532611px" stroke="rgb(0,0,0)" fill-rule="evenodd" stroke-width="0.0" fill="rgb(0,0,0)" stroke-linecap="butt" stroke-miterlimit="10.0">
    <text dominant-baseline="middle" transform="matrix(1.0000,-0.0000,0.0000,1.0000,295.5277,357.8836)" stroke="none" text-anchor="middle">300
    </text>
  </g>
  <g stroke-linejoin="miter" stroke-opacity="0.6" fill-opacity="0.0" stroke="rgb(0,0,0)" stroke-width="2.6879330353096016" fill="rgb(0,0,0)" stroke-linecap="butt" stroke-miterlimit="10.0">
    <path d="M 295.5277,339.7882 v 6.8439 "/>
  </g>
  <g stroke-linejoin="miter" stroke-opacity="0.0" fill-opacity="0.0" stroke="rgb(0,0,0)" fill-rule="evenodd" stroke-width="0.0" fill="rgb(0,0,0)" stroke-linecap="butt" stroke-miterlimit="10.0">
    <path d="M 221.6156,365.7130 l -0.0000,-15.6589 h -23.4884 l -0.0000,15.6589 Z"/>
  </g>
  <g stroke-linejoin="miter" stroke-opacity="1.0" fill-opacity="0.6" font-size="14.235378794532611px" stroke="rgb(0,0,0)" fill-rule="evenodd" stroke-width="0.0" fill="rgb(0,0,0)" stroke-linecap="butt" stroke-miterlimit="10.0">
    <text dominant-baseline="middle" transform="matrix(1.0000,-0.0000,0.0000,1.0000,209.8715,357.8836)" stroke="none" text-anchor="middle">200
    </text>
  </g>
  <g stroke-linejoin="miter" stroke-opacity="0.6" fill-opacity="0.0" stroke="rgb(0,0,0)" stroke-width="2.6879330353096016" fill="rgb(0,0,0)" stroke-linecap="butt" stroke-miterlimit="10.0">
    <path d="M 209.8715,339.7882 v 6.8439 "/>
  </g>
  <g stroke-linejoin="miter" stroke-opacity="0.0" fill-opacity="0.0" stroke="rgb(0,0,0)" fill-rule="evenodd" stroke-width="0.0" fill="rgb(0,0,0)" stroke-linecap="butt" stroke-miterlimit="10.0">
    <path d="M 135.9594,365.7130 l -0.0000,-15.6589 h -23.4884 l -0.0000,15.6589 Z"/>
  </g>
  <g stroke-linejoin="miter" stroke-opacity="1.0" fill-opacity="0.6" font-size="14.235378794532611px" stroke="rgb(0,0,0)" fill-rule="evenodd" stroke-width="0.0" fill="rgb(0,0,0)" stroke-linecap="butt" stroke-miterlimit="10.0">
    <text dominant-baseline="middle" transform="matrix(1.0000,-0.0000,0.0000,1.0000,124.2152,357.8836)" stroke="none" text-anchor="middle">100
    </text>
  </g>
  <g stroke-linejoin="miter" stroke-opacity="0.6" fill-opacity="0.0" stroke="rgb(0,0,0)" stroke-width="2.6879330353096016" fill="rgb(0,0,0)" stroke-linecap="butt" stroke-miterlimit="10.0">
    <path d="M 124.2152,339.7882 v 6.8439 "/>
  </g>
  <g stroke-linejoin="miter" stroke-opacity="0.0" fill-opacity="0.0" stroke="rgb(0,0,0)" stroke-width="0.0" fill="rgb(0,0,0)" stroke-linecap="butt" stroke-miterlimit="10.0">
    <path d="M 765.7803,330.6630 l -0.0000,-228.1311 h -684.3932 l -0.0000,228.1311 Z"/>
  </g>
  <g stroke-linejoin="miter" stroke-opacity="0.5" fill-opacity="0.0" stroke="rgb(93,165,218)" stroke-width="1.0751732141238406" fill="rgb(0,0,0)" stroke-linecap="butt" stroke-miterlimit="10.0">
    <path d="M 81.3871,109.4267 h 684.3932 "/>
  </g>
  <g stroke-linejoin="miter" stroke-opacity="0.5" fill-opacity="0.0" stroke="rgb(93,165,218)" stroke-width="1.0751732141238406" fill="rgb(0,0,0)" stroke-linecap="butt" stroke-miterlimit="10.0">
    <path d="M 81.3871,130.0116 h 684.3932 "/>
  </g>
  <g stroke-linejoin="miter" stroke-opacity="0.5" fill-opacity="0.0" stroke="rgb(93,165,218)" stroke-width="1.0751732141238406" fill="rgb(0,0,0)" stroke-linecap="butt" stroke-miterlimit="10.0">
    <path d="M 81.3871,150.5965 h 684.3932 "/>
  </g>
  <g stroke-linejoin="miter" stroke-opacity="0.5" fill-opacity="0.0" stroke="rgb(93,165,218)" stroke-width="1.0751732141238406" fill="rgb(0,0,0)" stroke-linecap="butt" stroke-miterlimit="10.0">
    <path d="M 81.3871,171.1814 h 684.3932 "/>
  </g>
  <g stroke-linejoin="miter" stroke-opacity="0.5" fill-opacity="0.0" stroke="rgb(93,165,218)" stroke-width="1.0751732141238406" fill="rgb(0,0,0)" stroke-linecap="butt" stroke-miterlimit="10.0">
    <path d="M 81.3871,191.7663 h 684.3932 "/>
  </g>
  <g stroke-linejoin="miter" stroke-opacity="0.5" fill-opacity="0.0" stroke="rgb(93,165,218)" stroke-width="1.0751732141238406" fill="rgb(0,0,0)" stroke-linecap="butt" stroke-miterlimit="10.0">
    <path d="M 81.3871,212.3512 h 684.3932 "/>
  </g>
  <g stroke-linejoin="miter" stroke-opacity="0.5" fill-opacity="0.0" stroke="rgb(93,165,218)" stroke-width="1.0751732141238406" fill="rgb(0,0,0)" stroke-linecap="butt" stroke-miterlimit="10.0">
    <path d="M 81.3871,232.9361 h 684.3932 "/>
  </g>
  <g stroke-linejoin="miter" stroke-opacity="0.5" fill-opacity="0.0" stroke="rgb(93,165,218)" stroke-width="1.0751732141238406" fill="rgb(0,0,0)" stroke-linecap="butt" stroke-miterlimit="10.0">
    <path d="M 81.3871,253.5210 h 684.3932 "/>
  </g>
  <g stroke-linejoin="miter" stroke-opacity="0.5" fill-opacity="0.0" stroke="rgb(93,165,218)" stroke-width="1.0751732141238406" fill="rgb(0,0,0)" stroke-linecap="butt" stroke-miterlimit="10.0">
    <path d="M 81.3871,274.1058 h 684.3932 "/>
  </g>
  <g stroke-linejoin="miter" stroke-opacity="0.5" fill-opacity="0.0" stroke="rgb(93,165,218)" stroke-width="1.0751732141238406" fill="rgb(0,0,0)" stroke-linecap="butt" stroke-miterlimit="10.0">
    <path d="M 81.3871,294.6907 h 684.3932 "/>
  </g>
  <g stroke-linejoin="miter" stroke-opacity="0.5" fill-opacity="0.0" stroke="rgb(93,165,218)" stroke-width="1.0751732141238406" fill="rgb(0,0,0)" stroke-linecap="butt" stroke-miterlimit="10.0">
    <path d="M 81.3871,315.2756 h 684.3932 "/>
  </g>
</svg>